<svg width="21" height="20" viewBox="0 0 21 20" fill="none" xmlns="http://www.w3.org/2000/svg">
<path d="M18.6712 8.36788H18V8.33329H10.5V11.6666H15.2095C14.5225 13.607 12.6762 15 10.5 15C7.73871 15 5.49996 12.7612 5.49996 9.99996C5.49996 7.23871 7.73871 4.99996 10.5 4.99996C11.7745 4.99996 12.9341 5.48079 13.817 6.26621L16.1741 3.90913C14.6858 2.52204 12.695 1.66663 10.5 1.66663C5.89788 1.66663 2.16663 5.39788 2.16663 9.99996C2.16663 14.602 5.89788 18.3333 10.5 18.3333C15.102 18.3333 18.8333 14.602 18.8333 9.99996C18.8333 9.44121 18.7758 8.89579 18.6712 8.36788Z" fill="#FFC107"/>
<path d="M3.12781 6.12121L5.86572 8.12913C6.60656 6.29496 8.40072 4.99996 10.5003 4.99996C11.7749 4.99996 12.9345 5.48079 13.8174 6.26621L16.1745 3.90913C14.6861 2.52204 12.6953 1.66663 10.5003 1.66663C7.29947 1.66663 4.52364 3.47371 3.12781 6.12121Z" fill="#FF3D00"/>
<path d="M10.5003 18.3333C12.6528 18.3333 14.6086 17.5095 16.0874 16.1699L13.5082 13.9874C12.6434 14.6451 11.5867 15.0008 10.5003 14.9999C8.33279 14.9999 6.49238 13.6178 5.79904 11.6891L3.08154 13.7828C4.46071 16.4816 7.26154 18.3333 10.5003 18.3333Z" fill="#4CAF50"/>
<path d="M18.6713 8.36784H18V8.33325H10.5V11.6666H15.2096C14.8809 12.5901 14.2889 13.3971 13.5067 13.9878L13.5079 13.987L16.0871 16.1695C15.9046 16.3353 18.8333 14.1666 18.8333 9.99992C18.8333 9.44117 18.7758 8.89575 18.6713 8.36784Z" fill="#1976D2"/>
</svg>
