<svg width="40" height="40" viewBox="0 0 40 40" fill="none" xmlns="http://www.w3.org/2000/svg">
<g clip-path="url(#clip0_1255_158111)">
<path d="M23.172 0C23.7022 0 24.2107 0.210507 24.5857 0.585255L36.4137 12.4044C36.7891 12.7795 37 13.2884 37 13.8191V35.3333C37 37.9107 34.8689 40 32.24 40H7.76C5.13112 40 3 37.9107 3 35.3333V4.66667C3 2.08934 5.13112 0 7.76 0H23.172Z" fill="#3B1F03"/>
<g filter="url(#filter0_d_1255_158111)">
<path d="M35.1548 12.1381C35.4678 12.4537 35.2443 12.9902 34.7998 12.9902H29C26.4227 12.9902 24.0976 10.7233 24.0976 8.21031V2.20435C24.0976 1.75791 24.6382 1.53528 24.9526 1.85224L35.1548 12.1381Z" fill="white" fill-opacity="0.24" shape-rendering="crispEdges"/>
</g>
<path d="M14 31L17.072 22.324H19.46L22.532 31H20.228L19.652 29.32H16.916L16.328 31H14ZM17.408 27.328H19.124L18.272 24.556L17.408 27.328Z" fill="#FF860D"/>
<path d="M23.5245 22.324H25.8585V31H23.5245V22.324Z" fill="#FF860D"/>
</g>
<defs>
<filter id="filter0_d_1255_158111" x="22.0977" y="1.70334" width="15.2031" height="15.2869" filterUnits="userSpaceOnUse" color-interpolation-filters="sRGB">
<feFlood flood-opacity="0" result="BackgroundImageFix"/>
<feColorMatrix in="SourceAlpha" type="matrix" values="0 0 0 0 0 0 0 0 0 0 0 0 0 0 0 0 0 0 127 0" result="hardAlpha"/>
<feOffset dy="2"/>
<feGaussianBlur stdDeviation="1"/>
<feComposite in2="hardAlpha" operator="out"/>
<feColorMatrix type="matrix" values="0 0 0 0 0 0 0 0 0 0 0 0 0 0 0 0 0 0 0.04 0"/>
<feBlend mode="normal" in2="BackgroundImageFix" result="effect1_dropShadow_1255_158111"/>
<feBlend mode="normal" in="SourceGraphic" in2="effect1_dropShadow_1255_158111" result="shape"/>
</filter>
<clipPath id="clip0_1255_158111">
<rect width="40" height="40" fill="white"/>
</clipPath>
</defs>
</svg>
