<svg width="40" height="40" viewBox="0 0 40 40" fill="none" xmlns="http://www.w3.org/2000/svg">
<path d="M23.172 -0.00976562C23.7022 -0.00976562 24.2107 0.200742 24.5857 0.57549L36.4137 12.3946C36.7891 12.7697 37 13.2786 37 13.8093V35.3236C37 37.9009 34.8689 39.9902 32.24 39.9902H7.76C5.13112 39.9902 3 37.9009 3 35.3236V4.6569C3 2.07957 5.13112 -0.00976562 7.76 -0.00976562H23.172Z" fill="#C4CDD5"/>
<g filter="url(#filter0_d_1995_147665)">
<path d="M35.1548 12.1284C35.4678 12.4439 35.2443 12.9805 34.7998 12.9805H29C26.4227 12.9805 24.0976 10.7135 24.0976 8.20054V2.19458C24.0976 1.74814 24.6382 1.52551 24.9526 1.84248L35.1548 12.1284Z" fill="white" fill-opacity="0.24" shape-rendering="crispEdges"/>
</g>
<defs>
<filter id="filter0_d_1995_147665" x="22.0977" y="1.69357" width="15.2031" height="15.2869" filterUnits="userSpaceOnUse" color-interpolation-filters="sRGB">
<feFlood flood-opacity="0" result="BackgroundImageFix"/>
<feColorMatrix in="SourceAlpha" type="matrix" values="0 0 0 0 0 0 0 0 0 0 0 0 0 0 0 0 0 0 127 0" result="hardAlpha"/>
<feOffset dy="2"/>
<feGaussianBlur stdDeviation="1"/>
<feComposite in2="hardAlpha" operator="out"/>
<feColorMatrix type="matrix" values="0 0 0 0 0 0 0 0 0 0 0 0 0 0 0 0 0 0 0.04 0"/>
<feBlend mode="normal" in2="BackgroundImageFix" result="effect1_dropShadow_1995_147665"/>
<feBlend mode="normal" in="SourceGraphic" in2="effect1_dropShadow_1995_147665" result="shape"/>
</filter>
</defs>
</svg>
