<svg width="135" height="100" viewBox="0 0 135 100" fill="none" xmlns="http://www.w3.org/2000/svg">
<path opacity="0.05" d="M89.5856 60.9132C88.6489 62.0269 87.6373 62.0082 87.0344 61.8512L87.0568 61.2745C87.0568 61.2745 89.5483 60.1359 89.4847 60.3751C89.4611 60.4648 89.5084 60.6803 89.5856 60.9132Z" fill="#FF5630"/>
<path opacity="0.05" d="M96.4137 62.1737C94.8229 63.0931 93.8899 62.0155 93.6731 61.7103C93.8064 61.3603 94.0069 60.7922 93.9658 60.6303C93.906 60.3898 96.3937 61.5284 96.3937 61.5284L96.4137 62.1737Z" fill="#FF5630"/>
<path opacity="0.05" d="M94.7095 53.0015C94.7095 53.0015 96.223 52.1295 96.5531 52.5219C96.8833 52.9143 94.7095 53.0015 94.7095 53.0015Z" fill="#FF5630"/>
<path opacity="0.05" d="M95.6235 53.4812C95.6235 53.4812 95.3744 53.6058 95.9237 53.7652C96.4731 53.9247 95.6235 53.4812 95.6235 53.4812Z" fill="#FF5630"/>
<path opacity="0.05" d="M86.4717 51.0831C86.4206 51.0981 87.7311 51.9676 88.9145 51.2476C88.9095 51.2476 86.7669 50.9934 86.4717 51.0831Z" fill="#FF5630"/>
<path opacity="0.05" d="M88.8497 52.7461C88.8497 52.7461 88.4909 53.4512 87.756 53.5558C87.021 53.6604 88.8497 52.7461 88.8497 52.7461Z" fill="#FF5630"/>
<path opacity="0.05" d="M93.6604 54.2759C93.6604 54.2759 95.3845 57.0165 95.0544 57.663C94.7242 58.3095 93.6604 54.2759 93.6604 54.2759Z" fill="#FF5630"/>
<path opacity="0.05" d="M90.2587 65.1734C90.2587 65.3266 90.2587 65.4698 90.2437 65.5882C90.1989 66.1425 88.8348 65.9332 88.8348 65.9332C87.5891 66.1064 87.1406 65.5085 86.9924 64.9367C86.9458 64.7509 86.9228 64.5601 86.9239 64.3686C86.9231 64.2545 86.9306 64.1404 86.9463 64.0273V63.9139C87.2148 63.833 87.5059 63.8924 87.7211 64.0721C88.2755 64.5218 89.0105 64.1768 89.0105 64.1768C89.0105 64.1768 89.5499 64.2216 89.7579 64.401C89.875 64.5019 90.0681 64.259 90.2151 64.0273C90.2238 64.1768 90.2375 64.4471 90.2462 64.7361C90.2562 64.8843 90.2587 65.0338 90.2587 65.1734Z" fill="#FF5630"/>
<path opacity="0.05" d="M88.0712 65.1411C88.0712 65.1411 87.6975 65.5074 86.9924 64.9418C86.9458 64.7561 86.9228 64.5653 86.9239 64.3738C87.2839 64.6478 87.9516 65.1411 88.0712 65.1411Z" fill="#FF5630"/>
<path opacity="0.05" d="M90.2584 65.1734C90.1969 65.2208 90.1186 65.2407 90.042 65.2284C89.9653 65.2162 89.8971 65.1728 89.8535 65.1086C89.9988 64.998 90.1324 64.8728 90.2521 64.7349C90.2559 64.8843 90.2584 65.0338 90.2584 65.1734Z" fill="#FF5630"/>
<path opacity="0.05" d="M93.1822 65.4301C93.1822 65.5846 93.1822 65.7278 93.1959 65.8449C93.2407 66.4005 94.6048 66.19 94.6048 66.19C95.8505 66.3644 96.299 65.7664 96.4472 65.1934C96.5206 64.896 96.5363 64.5873 96.4933 64.284V64.1707C96.2244 64.0911 95.9335 64.1504 95.7172 64.3289C95.1629 64.7786 94.4291 64.4335 94.4291 64.4335C94.4291 64.4335 93.8897 64.4796 93.6817 64.659C93.5646 64.7599 93.3715 64.517 93.2258 64.2853C93.2171 64.4348 93.2021 64.7051 93.1934 64.9941C93.1834 65.1398 93.1809 65.2893 93.1822 65.4301Z" fill="#FF5630"/>
<path opacity="0.05" d="M95.3699 65.3953C95.3699 65.3953 95.7436 65.7615 96.4474 65.1959C96.4944 65.0107 96.5179 64.8203 96.5172 64.6292C96.1559 64.902 95.4882 65.3953 95.3699 65.3953Z" fill="#FF5630"/>
<path opacity="0.05" d="M93.1822 65.43C93.2435 65.4773 93.3216 65.4972 93.398 65.4849C93.4745 65.4727 93.5425 65.4293 93.5858 65.3652C93.4403 65.2548 93.3068 65.1295 93.1872 64.9915C93.1835 65.1397 93.181 65.2892 93.1822 65.43Z" fill="#FF5630"/>
<path fill-rule="evenodd" clip-rule="evenodd" d="M33.1634 91.4419C32.8615 91.0785 32.7231 90.6065 32.781 90.1376L38.2796 45.146L38.7355 41.4089C38.8412 40.5489 39.5683 39.9007 40.4347 39.8941L56.5405 39.7869C57.0038 39.7841 57.4465 39.5948 57.7685 39.2617C58.0906 38.9286 58.2649 38.4799 58.2522 38.0168L58.2459 37.8461C58.2301 37.379 58.4045 36.9255 58.7293 36.5894C59.0541 36.2534 59.5014 36.0635 59.9688 36.0635H76.8931C77.8431 36.0635 78.6138 36.8325 78.6159 37.7826C78.6158 37.86 78.6108 37.9374 78.601 38.0143C78.5361 38.4992 78.6804 38.9888 78.9979 39.3609C79.3154 39.7331 79.7762 39.9528 80.2652 39.9651L96.5194 40.3799C97.0195 40.3922 97.4895 40.6214 97.8071 41.0079C98.1247 41.3944 98.2585 41.9 98.1737 42.393L90.0479 89.8548L89.8946 90.7517C89.8568 90.9809 89.7719 91.1997 89.6455 91.3945L33.1634 91.4419Z" fill="#004B50"/>
<rect x="82.2144" y="26.5315" width="9.51728" height="32.3027" transform="rotate(34.64 82.2144 26.5315)" fill="white"/>
<rect x="82.7788" y="27.7908" width="6.71903" height="6.71903" transform="rotate(34.804 82.7788 27.7908)" fill="#FFAB00"/>
<rect opacity="0.5" x="78.4565" y="34.4395" width="6.72812" height="6.72812" transform="rotate(34.64 78.4565 34.4395)" fill="#FFAB00"/>
<rect opacity="0.3" x="73.8384" y="41.1226" width="6.72813" height="6.72813" transform="rotate(34.64 73.8384 41.1226)" fill="#FFAB00"/>
<rect x="71.1516" y="24.8672" width="9.51729" height="32.1806" transform="rotate(16.29 71.1516 24.8672)" fill="white"/>
<rect x="72.3506" y="25.7588" width="6.72812" height="6.72812" transform="rotate(16.29 72.3506 25.7588)" fill="#FF5630"/>
<rect opacity="0.5" x="70.072" y="33.5552" width="6.72812" height="6.72812" transform="rotate(16.29 70.072 33.5552)" fill="#FF5630"/>
<rect opacity="0.3" x="67.7937" y="41.3506" width="6.72813" height="6.72813" transform="rotate(16.29 67.7937 41.3506)" fill="#FF5630"/>
<rect x="64.6807" y="25.3542" width="9.51729" height="32.1806" transform="rotate(4.6 64.6807 25.3542)" fill="white"/>
<rect x="66.0308" y="25.9851" width="6.72812" height="6.72812" transform="rotate(4.6 66.0308 25.9851)" fill="#00B8D9"/>
<rect opacity="0.5" x="65.3784" y="34.0798" width="6.72812" height="6.72812" transform="rotate(4.6 65.3784 34.0798)" fill="#00B8D9"/>
<rect opacity="0.3" x="64.7273" y="42.1772" width="6.72812" height="6.72812" transform="rotate(4.6 64.7273 42.1772)" fill="#00B8D9"/>
<rect x="60.4126" y="26.6438" width="9.51728" height="32.1806" transform="rotate(-2.61 60.4126 26.6438)" fill="white"/>
<rect x="61.8298" y="27.0984" width="6.72813" height="6.72812" transform="rotate(-2.61 61.8298 27.0984)" fill="#00A76F"/>
<rect opacity="0.5" x="62.4634" y="34.9553" width="6.73653" height="6.73653" transform="rotate(-2.86241 62.4634 34.9553)" fill="#00A76F"/>
<rect opacity="0.3" x="62.5691" y="43.3271" width="6.72812" height="6.72813" transform="rotate(-2.61 62.5691 43.3271)" fill="#00A76F"/>
<path d="M64.4498 69.0525L55.9939 72.3238L43.6351 77.1011C43.168 76.2291 42.4803 75.0506 41.6295 73.6442C38.7021 68.7934 33.8587 61.2481 29.546 54.6171C24.6877 47.1428 20.5059 40.8357 20.5059 40.8357L23.533 39.9637L48.2605 32.7847L64.4498 69.0525Z" fill="#F4F6F8"/>
<path opacity="0.1" d="M64.4495 69.0525L55.9936 72.3237C51.2699 73.3079 46.4495 73.7509 41.6255 73.6442C38.6981 68.7934 33.8547 61.2481 29.542 54.6171L23.5339 39.9588L48.2602 32.7847L64.4495 69.0525Z" fill="black"/>
<path d="M70.7404 67.0172C70.7404 67.0172 57.6043 74.788 37.9917 73.0303L22.3567 34.9113L29.8497 33.6233L55.7531 29.1748L70.4526 66.276L70.7404 67.0172Z" fill="#00A76F"/>
<path opacity="0.1" d="M70.4478 66.2809C67.3547 66.4329 63.7757 66.4179 60.1756 65.9882C56.279 65.5297 52.36 64.5855 49.0003 62.8539C46.1912 61.4077 43.7894 59.8343 41.6954 57.947C36.2479 53.0476 32.8769 46.0392 29.8499 33.6281L55.7533 29.1797L70.4478 66.2809Z" fill="#FF5630"/>
<path d="M80.0846 64.1495C80.0846 64.1495 70.4016 66.0455 60.5455 64.8782C56.6489 64.4198 52.7298 63.4756 49.3701 61.744C46.5611 60.2977 44.1606 58.7244 42.0653 56.8371C35.3234 50.7717 31.7632 41.4762 28.092 22.7045C28.092 22.7045 44.1892 26.5898 60.107 18.0791C60.102 18.0853 65.4673 51.5677 80.0846 64.1495Z" fill="white"/>
<g opacity="0.3">
<path d="M36.4185 29.5957C36.4185 29.5957 49.5085 28.8557 53.1634 26.0342L53.7177 27.8156C53.7177 27.8156 45.0687 31.6312 36.4185 31.6773V29.5957Z" fill="#00A76F"/>
<path d="M36.4185 38.3904C36.4185 38.3904 49.0924 37.6966 58.6682 33.0712L58.9921 33.8112C58.9921 33.8112 51.3932 38.2472 36.4185 39.4082V38.3904Z" fill="#00A76F"/>
<path d="M37.439 41.8175C37.439 41.8175 50.1129 41.1236 59.6875 36.4983L60.0114 37.2382C60.0114 37.2382 52.4125 41.673 37.439 42.8352V41.8175Z" fill="#00A76F"/>
<path d="M38.4578 45.2494C38.4578 45.2494 51.1318 44.5555 60.7076 39.9302L61.0302 40.6701C61.0302 40.6701 53.4314 45.1061 38.4578 46.2671V45.2494Z" fill="#00A76F"/>
<path d="M39.4779 48.6814C39.4779 48.6814 52.1519 47.9875 61.7265 43.3622L62.0504 44.1021C62.0504 44.1021 54.4515 48.5381 39.4779 49.6991V48.6814Z" fill="#00A76F"/>
<path d="M40.4968 52.1145C40.4968 52.1145 53.1708 51.4206 62.7466 46.7953L63.0692 47.5352C63.0692 47.5352 55.4704 51.97 40.4968 53.1323V52.1145Z" fill="#00A76F"/>
</g>
<path d="M129.612 94.7268C129.612 94.7268 124.345 94.4092 124.965 98.1002C124.965 98.1002 124.841 98.7517 125.434 99.0482C125.434 99.0482 125.442 98.7742 125.973 98.8676C126.162 98.8994 126.355 98.9086 126.546 98.895C126.804 98.8777 127.05 98.7762 127.245 98.606C127.245 98.606 128.726 97.9943 129.302 95.5752C129.302 95.5752 129.728 95.047 129.71 94.9112L128.822 95.2849C128.822 95.2849 129.126 95.9264 128.887 96.4584C128.887 96.4584 128.858 95.3086 128.687 95.3372C128.653 95.3372 128.225 95.559 128.225 95.559C128.225 95.559 128.747 96.6801 128.35 97.4873C128.35 97.4873 128.499 96.1108 128.058 95.6399L127.436 96.0049C127.436 96.0049 128.046 97.1585 127.632 98.1002C127.632 98.1002 127.738 96.6564 127.303 96.0934L126.737 96.5356C126.737 96.5356 127.311 97.6729 126.961 98.454C126.961 98.454 126.915 96.7723 126.613 96.6452C126.613 96.6452 126.115 97.0825 126.043 97.2681C126.043 97.2681 126.435 98.0927 126.191 98.5287C126.191 98.5287 126.042 97.4076 125.919 97.4076C125.919 97.4076 125.421 98.155 125.374 98.6533C125.374 98.6533 125.395 97.8959 125.8 97.3316C125.515 97.3861 125.251 97.5224 125.043 97.724C125.043 97.724 125.12 97.1983 125.922 97.1535C125.922 97.1535 126.331 96.5904 126.439 96.5555C126.439 96.5555 125.642 96.4895 125.158 96.7038C125.158 96.7038 125.584 96.2055 126.586 96.4334L127.145 95.9775C127.145 95.9775 126.095 95.833 125.65 95.9925C125.65 95.9925 126.162 95.554 127.296 95.8679L127.905 95.5041C127.905 95.5041 127.011 95.3111 126.478 95.3796C126.478 95.3796 127.039 95.0756 128.085 95.4045L128.519 95.2089C128.519 95.2089 127.864 95.0843 127.672 95.0594C127.48 95.0345 127.469 94.9872 127.469 94.9872C127.885 94.9171 128.311 94.9646 128.701 95.1242C128.701 95.1242 129.627 94.7854 129.612 94.7268Z" fill="#00A76F"/>
<path d="M132.065 82.5425C132.065 82.5425 129.096 82.3631 129.449 84.4447C129.412 84.6609 129.518 84.8766 129.712 84.9791C129.712 84.9791 129.718 84.8246 130.017 84.8769C130.123 84.8945 130.232 84.8995 130.339 84.8919C130.485 84.8825 130.623 84.8256 130.733 84.7299C130.733 84.7299 131.568 84.3849 131.893 83.0208C131.893 83.0208 132.133 82.7231 132.123 82.6471L131.625 82.8601C131.625 82.8601 131.796 83.2226 131.661 83.5228C131.661 83.5228 131.645 82.8738 131.549 82.8888C131.529 82.8888 131.289 83.0133 131.289 83.0133C131.289 83.0133 131.583 83.6362 131.361 84.1008C131.361 84.1008 131.446 83.3248 131.197 83.0582L130.844 83.265C130.844 83.265 131.188 83.9152 130.955 84.4459C130.955 84.4459 131.015 83.6312 130.769 83.3148L130.45 83.5639C130.45 83.5639 130.773 84.2055 130.575 84.6452C130.575 84.6452 130.549 83.6972 130.379 83.6262C130.258 83.7288 130.15 83.8455 130.057 83.9738C130.057 83.9738 130.278 84.4397 130.141 84.6851C130.141 84.6851 130.057 84.0535 129.988 84.051C129.988 84.051 129.709 84.4683 129.68 84.7548C129.694 84.489 129.777 84.2313 129.921 84.0074C129.76 84.0378 129.611 84.1149 129.494 84.2292C129.494 84.2292 129.537 83.9327 129.992 83.9078C129.992 83.9078 130.222 83.5901 130.283 83.5702C130.283 83.5702 129.834 83.5328 129.561 83.6536C129.561 83.6536 129.801 83.3746 130.366 83.5017L130.682 83.2438C130.682 83.2438 130.089 83.1628 129.839 83.2525C129.839 83.2525 130.128 83.0034 130.767 83.1852L131.111 82.9797C130.846 82.9218 130.575 82.8988 130.305 82.9112C130.305 82.9112 130.622 82.7393 131.21 82.9249L131.459 82.8153C131.459 82.8153 131.086 82.7418 130.981 82.7306C130.876 82.7193 130.866 82.6894 130.866 82.6894C131.101 82.6505 131.341 82.6772 131.562 82.7667C131.562 82.7667 132.075 82.5748 132.065 82.5425Z" fill="#00A76F"/>
<path d="M114.54 84.3487C114.54 84.3487 110.955 84.1319 111.378 86.6445C111.333 86.9057 111.461 87.1663 111.696 87.2898C111.696 87.2898 111.696 87.103 112.07 87.1653C112.198 87.187 112.329 87.1933 112.46 87.1839C112.635 87.1722 112.803 87.1031 112.935 86.9871C112.935 86.9871 113.943 86.571 114.336 84.9242C114.336 84.9242 114.626 84.5654 114.613 84.472L114.002 84.7311C114.002 84.7311 114.209 85.1671 114.045 85.5296C114.045 85.5296 114.025 84.7473 113.91 84.7648C113.886 84.7648 113.596 84.9167 113.596 84.9167C113.596 84.9167 113.951 85.6766 113.683 86.2297C113.683 86.2297 113.785 85.2929 113.485 84.9715L113.059 85.2207C113.059 85.2207 113.474 86.0067 113.192 86.647C113.192 86.647 113.264 85.6642 112.969 85.2767L112.583 85.5782C112.583 85.5782 112.974 86.3518 112.735 86.8837C112.735 86.8837 112.705 85.7389 112.499 85.653C112.499 85.653 112.162 85.9507 112.111 86.0728C112.111 86.0728 112.377 86.6346 112.212 86.9311C112.212 86.9311 112.11 86.1687 112.026 86.1649C112.026 86.1649 111.691 86.6707 111.652 87.0158C111.669 86.6958 111.769 86.3858 111.943 86.1164C111.749 86.1534 111.57 86.2465 111.428 86.3842C111.428 86.3842 111.48 86.0267 112.026 85.9955C112.026 85.9955 112.304 85.6118 112.379 85.5894C112.379 85.5894 111.835 85.5433 111.507 85.6891C111.507 85.6891 111.796 85.3527 112.477 85.506L112.858 85.1945C112.858 85.1945 112.144 85.0974 111.84 85.2045C111.84 85.2045 112.189 84.9068 112.962 85.1248L113.376 84.8756C113.376 84.8756 112.767 84.7448 112.404 84.7922C112.404 84.7922 112.787 84.5854 113.497 84.8096L113.794 84.6763C113.794 84.6763 113.348 84.5891 113.217 84.5754C113.086 84.5617 113.08 84.5256 113.08 84.5256C113.363 84.4777 113.653 84.5096 113.918 84.6178C113.918 84.6178 114.551 84.3873 114.54 84.3487Z" fill="#00A76F"/>
<rect x="83.3882" y="27.0891" width="21.2607" height="38.0467" rx="4.73723" transform="rotate(-71.99 83.3882 27.0891)" fill="white"/>
<g opacity="0.24">
<path d="M97.912 18.1278C97.912 20.2853 96.163 22.0343 94.0054 22.0343C91.8479 22.0343 90.0989 20.2853 90.0989 18.1278C90.0989 15.9702 91.8479 14.2212 94.0054 14.2212C96.163 14.2212 97.912 15.9702 97.912 18.1278Z" fill="#00A76F"/>
<path d="M103.352 17.4245L103.683 16.4068L119.87 21.6692L119.539 22.6869L103.352 17.4245Z" fill="#00A76F"/>
<path d="M102.509 20.019L102.84 19.0014L111.085 21.682L110.754 22.6997L102.509 20.019Z" fill="#00A76F"/>
<path d="M101.664 22.6152L101.994 21.5976L115.33 25.9332L115 26.9509L101.664 22.6152Z" fill="#00A76F"/>
<path d="M100.82 25.2104L101.151 24.1927L117.338 29.4551L117.007 30.4727L100.82 25.2104Z" fill="#00A76F"/>
</g>
<rect opacity="0.5" x="111" y="33.7139" width="2.06914" height="4.71006" transform="rotate(-71.99 111 33.7139)" fill="#00A76F"/>
<path d="M83.4336 66.1721C81.5753 64.9775 81.0373 62.5026 82.2319 60.6443L89.2393 49.744C90.4339 47.8857 92.9087 47.3477 94.767 48.5423L115.483 61.8595C117.341 63.0541 117.879 65.5289 116.684 67.3872L109.677 78.2876C108.482 80.1459 106.007 80.6839 104.149 79.4893L83.4336 66.1721Z" fill="white"/>
<path d="M97.1252 69.6544L104.109 58.6626L105.189 59.3487L98.2051 70.3405L97.1252 69.6544Z" fill="#F4F6F8"/>
<path d="M99.432 71.1188L106.416 60.127L107.495 60.8131L100.512 71.8049L99.432 71.1188Z" fill="#F4F6F8"/>
<path d="M84.1357 62.7794L87.3156 57.7745L88.4932 58.5227L85.3134 63.5276L84.1357 62.7794Z" fill="#C4CDD5"/>
<path d="M87.8996 63.7933L94.8833 52.8015L95.9631 53.4876L88.9794 64.4794L87.8996 63.7933Z" fill="#C4CDD5"/>
<path d="M90.2063 65.2575L97.19 54.2657L98.2698 54.9518L91.2861 65.9436L90.2063 65.2575Z" fill="#C4CDD5"/>
<path d="M92.5126 66.7242L99.4963 55.7324L100.576 56.4185L93.5924 67.4103L92.5126 66.7242Z" fill="#C4CDD5"/>
<path d="M94.8991 68.8492L101.931 57.9101L103.006 58.6009L95.9737 69.54L94.8991 68.8492Z" fill="#C4CDD5"/>
<path d="M109.116 64.8749L110.925 62.0286L113.771 63.837L111.962 66.6832L109.116 64.8749Z" fill="#C4CDD5"/>
<path d="M79.6983 45.3167L60.6289 45.5223C59.9151 45.5298 59.3402 46.1102 59.3396 46.824V48.3999C59.3391 49.1066 58.7754 49.6841 58.0689 49.7016L44.3087 50.0318C43.7086 50.0468 43.176 49.6496 43.0194 49.0701L42.3729 46.6945C42.2178 46.1214 41.6947 45.7258 41.101 45.7328L22.7204 45.9309C22.3393 45.9346 21.979 46.1052 21.7345 46.3976C21.49 46.69 21.386 47.0749 21.4498 47.4506L28.8444 90.971C28.9504 91.5956 29.4902 92.0535 30.1237 92.0561L88.1916 92.3052C88.5807 92.3065 88.9501 92.1338 89.1986 91.8344C89.4472 91.535 89.5489 91.1402 89.476 90.758L80.9901 46.3743C80.872 45.7557 80.3281 45.3104 79.6983 45.3167Z" fill="url(#paint0_linear_4900_820)"/>
<g opacity="0.2">
<path d="M129.711 99.3696C129.711 99.7177 128.043 99.9999 125.984 99.9999C123.926 99.9999 122.257 99.7177 122.257 99.3696C122.257 99.0214 123.926 98.7392 125.984 98.7392C128.043 98.7392 129.711 99.0214 129.711 99.3696Z" fill="#00A76F"/>
<path d="M132.123 85.1596C132.123 85.3557 131.183 85.5146 130.022 85.5146C128.861 85.5146 127.92 85.3557 127.92 85.1596C127.92 84.9635 128.861 84.8046 130.022 84.8046C131.183 84.8046 132.123 84.9635 132.123 85.1596Z" fill="#00A76F"/>
<path d="M114.609 87.5091C114.609 87.7458 113.473 87.9376 112.071 87.9376C110.67 87.9376 109.534 87.7458 109.534 87.5091C109.534 87.2724 110.67 87.0806 112.071 87.0806C113.473 87.0806 114.609 87.2724 114.609 87.5091Z" fill="#00A76F"/>
<path d="M19.3499 82.7766C19.3499 82.93 18.4458 83.0544 17.3306 83.0544C16.2154 83.0544 15.3113 82.93 15.3113 82.7766C15.3113 82.6232 16.2154 82.4988 17.3306 82.4988C18.4458 82.4988 19.3499 82.6232 19.3499 82.7766Z" fill="#00A76F"/>
<path d="M11.6151 83.5602C11.6151 83.7136 10.711 83.838 9.59581 83.838C8.48057 83.838 7.5765 83.7136 7.5765 83.5602C7.5765 83.4067 8.48057 83.2824 9.59581 83.2824C10.711 83.2824 11.6151 83.4067 11.6151 83.5602Z" fill="#00A76F"/>
<path d="M14.1266 85.7937C14.1266 85.9025 13.4841 85.9906 12.6916 85.9906C11.899 85.9906 11.2565 85.9025 11.2565 85.7937C11.2565 85.685 11.899 85.5969 12.6916 85.5969C13.4841 85.5969 14.1266 85.685 14.1266 85.7937Z" fill="#00A76F"/>
<path d="M6.09889 85.5969C6.09889 85.7056 5.45639 85.7937 4.66383 85.7937C3.87126 85.7937 3.22876 85.7056 3.22876 85.5969C3.22876 85.4882 3.87126 85.4001 4.66383 85.4001C5.45639 85.4001 6.09889 85.4882 6.09889 85.5969Z" fill="#00A76F"/>
</g>
<path d="M3.87302 85.1486C3.78277 85.0748 3.71715 84.9753 3.68492 84.8633C3.65314 84.7474 3.70869 84.6253 3.81696 84.573C3.94153 84.5269 4.06611 84.6104 4.16576 84.6976C4.26542 84.7848 4.37878 84.877 4.50335 84.8558C4.36887 84.734 4.30831 84.5504 4.3439 84.3725C4.34901 84.3363 4.36411 84.3022 4.3875 84.2741C4.45477 84.2018 4.57685 84.233 4.65782 84.2903C4.90697 84.4696 4.98545 84.8172 4.98669 85.1311C4.99917 85.016 4.99917 84.8999 4.98669 84.7848C4.98 84.667 5.03229 84.5535 5.12621 84.4821C5.18685 84.449 5.25522 84.4327 5.32428 84.4348C5.44004 84.4182 5.55738 84.4517 5.64692 84.5269C5.73417 84.6457 5.72903 84.8088 5.63446 84.9218C5.53902 85.0289 5.42614 85.119 5.30061 85.1884C5.20533 85.2458 5.12404 85.3236 5.06268 85.4164C5.05515 85.4289 5.04929 85.4423 5.04524 85.4562H4.32023C4.15794 85.3744 4.0075 85.2709 3.87302 85.1486Z" fill="#00A76F"/>
<path d="M16.5107 82.4304C16.4202 82.3574 16.3545 82.2582 16.3226 82.1464C16.2906 82.0308 16.3456 81.9088 16.4534 81.8561C16.578 81.81 16.7025 81.8935 16.8022 81.9807C16.9019 82.0679 17.014 82.1626 17.1423 82.1439C17.0078 82.0226 16.9468 81.8396 16.9816 81.6618C16.9871 81.6255 17.0026 81.5914 17.0264 81.5634C17.0937 81.4911 17.2158 81.5223 17.2967 81.5783C17.5521 81.759 17.6244 82.1065 17.6256 82.4204C17.6381 82.3049 17.6381 82.1884 17.6256 82.0729C17.6143 81.9565 17.6609 81.8419 17.7502 81.7664C17.8111 81.7341 17.8794 81.7183 17.9483 81.7203C18.0638 81.7041 18.1809 81.7371 18.2709 81.8113C18.3584 81.9306 18.3528 82.0944 18.2572 82.2074C18.1625 82.3147 18.0499 82.4049 17.9246 82.474C17.8293 82.5308 17.748 82.6083 17.6867 82.7007C17.6794 82.7137 17.6735 82.7275 17.6692 82.7418H16.9604C16.7969 82.6592 16.6456 82.5544 16.5107 82.4304Z" fill="#00A76F"/>
<path d="M12.2992 85.1485C12.209 85.0745 12.143 84.9751 12.1098 84.8633C12.078 84.7473 12.1336 84.6252 12.2418 84.573C12.3664 84.5269 12.491 84.6104 12.5906 84.6976C12.6903 84.7848 12.8012 84.8795 12.9307 84.862C12.7964 84.74 12.7355 84.5568 12.77 84.3787C12.7756 84.3424 12.7911 84.3083 12.8149 84.2803C12.8821 84.208 13.0042 84.2392 13.0852 84.2965C13.3406 84.4758 13.4116 84.8234 13.4141 85.1373C13.4265 85.0222 13.4265 84.9061 13.4141 84.791C13.4043 84.6735 13.4532 84.5588 13.5449 84.4846C13.6054 84.4513 13.6739 84.4349 13.7429 84.4372C13.8587 84.4208 13.976 84.4543 14.0656 84.5294C14.1529 84.6484 14.1473 84.8117 14.0519 84.9243C13.9569 85.0313 13.8444 85.1215 13.7193 85.1909C13.624 85.2482 13.5427 85.3261 13.4813 85.4189C13.4738 85.4313 13.4679 85.4447 13.4639 85.4587H12.7414C12.5808 85.3755 12.4321 85.2712 12.2992 85.1485Z" fill="#00A76F"/>
<g opacity="0.08">
<path d="M5.38898 11.2513C5.38898 12.7394 4.18261 13.9458 2.69449 13.9458C1.20636 13.9458 0 12.7394 0 11.2513C0 9.76319 1.20636 8.55682 2.69449 8.55682C4.18261 8.55682 5.38898 9.76319 5.38898 11.2513Z" fill="#00A76F"/>
<path d="M134.955 32.7835C134.955 34.2716 133.748 35.478 132.26 35.478C130.772 35.478 129.566 34.2716 129.566 32.7835C129.566 31.2954 130.772 30.089 132.26 30.089C133.748 30.089 134.955 31.2954 134.955 32.7835Z" fill="#00A76F"/>
<path d="M86.5189 2.69449C86.5189 4.18261 85.3126 5.38898 83.8244 5.38898C82.3363 5.38898 81.13 4.18261 81.13 2.69449C81.13 1.20636 82.3363 0 83.8244 0C85.3126 0 86.5189 1.20636 86.5189 2.69449Z" fill="#00A76F"/>
<path d="M12.5992 26.1165C12.5992 28.6104 10.5774 30.6322 8.08344 30.6322C5.58947 30.6322 3.56771 28.6104 3.56771 26.1165C3.56771 23.6225 5.58947 21.6007 8.08344 21.6007C10.5774 21.6007 12.5992 23.6225 12.5992 26.1165Z" fill="#00A76F"/>
</g>
<path fill-rule="evenodd" clip-rule="evenodd" d="M53.3454 62.4629C50.0224 62.4629 47.3286 65.1567 47.3286 68.4797C47.3286 71.8027 50.0224 74.4965 53.3454 74.4965C56.6684 74.4965 59.3622 71.8027 59.3622 68.4797C59.3622 65.1567 56.6684 62.4629 53.3454 62.4629V62.4629Z" fill="#007867"/>
<path opacity="0.72" fill-rule="evenodd" clip-rule="evenodd" d="M53.3455 63.1626C56.2819 63.1626 58.6624 65.5431 58.6624 68.4795C58.6624 71.416 56.2819 73.7964 53.3455 73.7964C50.409 73.7964 48.0286 71.416 48.0286 68.4795C48.0311 65.5441 50.4101 63.1652 53.3455 63.1626Z" fill="#00A76F"/>
<path fill-rule="evenodd" clip-rule="evenodd" d="M50.8575 68.919L50.5666 68.6351C50.5037 68.5776 50.468 68.4973 50.468 68.4133C50.468 68.3292 50.5037 68.2489 50.5666 68.1914L53.1193 65.698C53.1782 65.6366 53.2605 65.6018 53.3467 65.6018C53.4328 65.6018 53.5151 65.6366 53.574 65.698L56.1267 68.1892C56.1884 68.2473 56.2232 68.3274 56.2232 68.411C56.2232 68.4947 56.1884 68.5748 56.1267 68.6329L55.8358 68.9168C55.7762 68.977 55.6942 69.011 55.6084 69.011C55.5227 69.011 55.4407 68.977 55.3811 68.9168L53.8718 67.364V71.0487C53.8724 71.1302 53.8396 71.2087 53.7807 71.2666C53.7218 71.3245 53.6416 71.357 53.5581 71.357H53.1375C52.963 71.357 52.8216 71.219 52.8216 71.0487V67.3684L51.3122 68.9213C51.2523 68.9812 51.1701 69.0148 51.0844 69.0143C50.9986 69.0139 50.9168 68.9795 50.8575 68.919Z" fill="#007867"/>
<path d="M9.55209 83.4993C9.55209 83.4993 12.3836 74.2162 9.10861 70.4977C6.65829 67.716 3.8766 68.0486 2.63088 68.3924C1.97899 68.5666 1.43624 69.0178 1.14599 69.6269C0.709986 70.5662 0.788467 72.091 3.8629 73.8711C9.00896 76.8509 9.32911 80.9381 9.32911 80.9381L9.55209 83.4993Z" fill="#00A76F"/>
<path d="M9.66713 83.5727C9.66713 83.5727 6.34978 76.8259 5.43916 76.9704C5.0069 77.0414 4.80758 77.4687 4.71665 77.8947C4.60483 78.4475 4.66797 79.0213 4.89727 79.5366C5.36816 80.6203 6.63256 82.6695 9.66713 83.5727Z" fill="#00A76F"/>
<path d="M9.56836 83.5727C9.56836 83.5727 12.8845 76.8259 13.7951 76.9704C14.2286 77.0414 14.4279 77.4687 14.5176 77.8947C14.6294 78.4475 14.5663 79.0213 14.337 79.5366C13.8661 80.6203 12.6004 82.6695 9.56836 83.5727Z" fill="#00A76F"/>
<path fill-rule="evenodd" clip-rule="evenodd" d="M2.97646 69.678C2.99367 69.6231 3.05212 69.5926 3.10701 69.6098L3.07586 69.7092C3.10701 69.6098 3.10701 69.6098 3.10701 69.6098L3.10764 69.61L3.10903 69.6104L3.11407 69.612L3.13294 69.6183C3.14938 69.6238 3.17341 69.6321 3.20448 69.6433C3.26662 69.6657 3.35692 69.6999 3.47083 69.7472C3.69861 69.8419 4.02097 69.9894 4.40149 70.2015C5.16235 70.6256 6.15696 71.3085 7.09273 72.3441C8.96767 74.4191 10.5957 77.8989 9.65633 83.5165C9.64684 83.5732 9.59315 83.6115 9.53641 83.602C9.47967 83.5925 9.44136 83.5388 9.45085 83.4821C10.38 77.9255 8.76923 74.5103 6.93815 72.4838C6.02092 71.4687 5.04574 70.7991 4.30006 70.3835C3.92731 70.1757 3.61221 70.0316 3.39085 69.9396C3.28019 69.8936 3.193 69.8606 3.13379 69.8393C3.10418 69.8286 3.08158 69.8208 3.06655 69.8158L3.04974 69.8102L3.04572 69.8089L3.04484 69.8086C2.98996 69.7914 2.95926 69.7329 2.97646 69.678Z" fill="#007867"/>
<path fill-rule="evenodd" clip-rule="evenodd" d="M8.038 70.5865C8.07013 70.6342 8.05755 70.6989 8.00992 70.7311L8.00957 70.7313L8.00771 70.7326L7.99939 70.7384C7.99189 70.7438 7.98059 70.7521 7.96615 70.7631C7.93723 70.7852 7.89579 70.8183 7.84693 70.8618C7.749 70.949 7.6225 71.0765 7.50734 71.2382C7.2772 71.5613 7.09739 72.0123 7.26743 72.5531C7.28469 72.608 7.25419 72.6664 7.19931 72.6837C7.14442 72.7009 7.08595 72.6704 7.06869 72.6156C6.87249 71.9916 7.08446 71.4728 7.33765 71.1173C7.46417 70.9397 7.60222 70.8007 7.70843 70.7062C7.76165 70.6588 7.80717 70.6224 7.83971 70.5975C7.85598 70.5851 7.86903 70.5756 7.87819 70.569L7.88895 70.5614L7.89199 70.5593L7.89291 70.5587L7.89332 70.5584C7.89332 70.5584 7.8934 70.5584 7.94959 70.6417L7.89332 70.5584C7.94103 70.5263 8.00585 70.5388 8.038 70.5865Z" fill="#007867"/>
<path fill-rule="evenodd" clip-rule="evenodd" d="M3.98716 71.4079L3.98815 71.4069L3.99309 71.4021C3.99768 71.3977 4.00482 71.391 4.01437 71.3824C4.0335 71.3652 4.06222 71.3405 4.09946 71.3119C4.17415 71.2546 4.28199 71.1821 4.41449 71.1214C4.67885 71.0004 5.03546 70.9284 5.4276 71.1093C5.47984 71.1334 5.54173 71.1106 5.56583 71.0584C5.58993 71.0061 5.56713 70.9442 5.51489 70.9201C5.05123 70.7062 4.62864 70.7942 4.32776 70.932C4.17763 71.0007 4.05634 71.0823 3.97255 71.1467C3.93056 71.179 3.8977 71.2071 3.87506 71.2275C3.86373 71.2377 3.85494 71.2459 3.84882 71.2518L3.84164 71.2588L3.83958 71.2608L3.83894 71.2615L3.83863 71.2618C3.83863 71.2618 3.83855 71.2619 3.91286 71.3349L3.83863 71.2618C3.7983 71.3028 3.79881 71.3689 3.83985 71.4092C3.88088 71.4495 3.94684 71.4489 3.98716 71.4079Z" fill="#007867"/>
<path fill-rule="evenodd" clip-rule="evenodd" d="M7.25974 75.023L7.26019 75.0228L7.26238 75.0217L7.27179 75.0172C7.28023 75.0131 7.29291 75.0071 7.30932 74.9997C7.34215 74.9849 7.38973 74.9645 7.44792 74.9422C7.56483 74.8975 7.72204 74.8465 7.88706 74.819C8.05337 74.7913 8.2189 74.7889 8.35719 74.8332C8.49064 74.876 8.60256 74.9629 8.66979 75.1276C8.69154 75.1809 8.75234 75.2064 8.80561 75.1847C8.85887 75.1629 8.88441 75.1021 8.86267 75.0489C8.77045 74.823 8.60846 74.6949 8.42075 74.6348C8.23788 74.5762 8.03499 74.5831 7.85281 74.6135C7.66934 74.6441 7.49799 74.7 7.37347 74.7476C7.31094 74.7715 7.25959 74.7936 7.22366 74.8098C7.20568 74.8179 7.19153 74.8246 7.18174 74.8293L7.17036 74.8348L7.16724 74.8364L7.16635 74.8368L7.16597 74.837C7.16597 74.837 7.1659 74.837 7.21281 74.93L7.16597 74.837C7.11461 74.8629 7.09391 74.9256 7.11982 74.9769C7.14573 75.0283 7.20839 75.0489 7.25974 75.023Z" fill="#007867"/>
<path fill-rule="evenodd" clip-rule="evenodd" d="M5.40483 78.1678C5.45219 78.1352 5.51706 78.1471 5.54972 78.1945L5.46396 78.2536L5.37821 78.3127C5.34555 78.2654 5.35747 78.2005 5.40483 78.1678ZM5.46396 78.2536C5.37821 78.3127 5.37821 78.3127 5.37821 78.3127L5.4176 78.3697C5.4433 78.4068 5.48107 78.4612 5.52937 78.5305C5.62596 78.6691 5.76468 78.8673 5.93323 79.1059C6.2703 79.5829 6.72686 80.2215 7.20458 80.8671C7.68208 81.5124 8.18163 82.1661 8.60447 82.6728C8.81576 82.926 9.00921 83.1441 9.172 83.3066C9.25335 83.3878 9.32841 83.4565 9.39526 83.5091C9.46016 83.5602 9.52478 83.6022 9.58457 83.6219C9.63921 83.6399 9.6981 83.6102 9.71611 83.5556C9.73412 83.5009 9.70443 83.4421 9.64979 83.424C9.6255 83.416 9.5841 83.3926 9.52411 83.3454C9.46607 83.2997 9.39738 83.2372 9.31918 83.1592C9.16287 83.0032 8.97404 82.7905 8.76443 82.5393C8.34549 82.0373 7.84877 81.3875 7.37205 80.7432C6.89555 80.0992 6.43993 79.4619 6.10338 78.9856C5.93512 78.7475 5.79667 78.5497 5.70029 78.4114C5.65211 78.3422 5.61444 78.2879 5.58883 78.251L5.54972 78.1945C5.54972 78.1945 5.54972 78.1945 5.46396 78.2536Z" fill="#007867"/>
<path fill-rule="evenodd" clip-rule="evenodd" d="M5.03956 79.0421C5.03956 78.9846 5.0862 78.9379 5.14373 78.9379H5.95594C6.01347 78.9379 6.06011 78.9846 6.06011 79.0421C6.06011 79.0996 6.01347 79.1463 5.95594 79.1463H5.14373C5.0862 79.1463 5.03956 79.0996 5.03956 79.0421Z" fill="#007867"/>
<path fill-rule="evenodd" clip-rule="evenodd" d="M6.01256 80.8838C6.01503 80.8263 6.06363 80.7817 6.12111 80.7842L7.39547 80.839C7.45295 80.8415 7.49754 80.8901 7.49507 80.9475C7.4926 81.005 7.444 81.0496 7.38652 81.0471L6.11215 80.9923C6.05468 80.9899 6.01009 80.9413 6.01256 80.8838Z" fill="#007867"/>
<path fill-rule="evenodd" clip-rule="evenodd" d="M6.91376 79.3088C6.97008 79.3206 7.00623 79.3757 6.9945 79.4321L6.85622 80.096C6.84449 80.1523 6.78933 80.1885 6.73301 80.1768C6.67668 80.165 6.64054 80.1099 6.65226 80.0535L6.79054 79.3896C6.80227 79.3333 6.85743 79.2971 6.91376 79.3088Z" fill="#007867"/>
<path fill-rule="evenodd" clip-rule="evenodd" d="M8.25093 81.3261C8.30841 81.3285 8.35308 81.377 8.35071 81.4345L8.32579 82.0374C8.32342 82.0949 8.2749 82.1395 8.21741 82.1372C8.15993 82.1348 8.11526 82.0863 8.11764 82.0288L8.14255 81.4259C8.14493 81.3684 8.19345 81.3237 8.25093 81.3261Z" fill="#007867"/>
<path fill-rule="evenodd" clip-rule="evenodd" d="M13.686 78.1944C13.7187 78.147 13.7836 78.1352 13.8309 78.1679C13.8782 78.2006 13.8901 78.2655 13.8574 78.3128L13.7717 78.2536L13.686 78.1944ZM13.686 78.1944C13.686 78.1944 13.686 78.1944 13.7717 78.2536C13.8574 78.3128 13.8574 78.3128 13.8574 78.3128L13.8179 78.3697C13.7921 78.4068 13.7543 78.4612 13.7059 78.5306C13.6091 78.6692 13.4701 78.8674 13.3013 79.1059C12.9636 79.583 12.5063 80.2215 12.0281 80.8671C11.55 81.5125 11.0501 82.1661 10.6275 82.6728C10.4163 82.926 10.2231 83.1441 10.0607 83.3065C9.9796 83.3877 9.90481 83.4564 9.8383 83.509C9.77375 83.56 9.70948 83.6021 9.65008 83.6218C9.5955 83.64 9.53652 83.6105 9.51836 83.5559C9.5002 83.5013 9.52973 83.4423 9.58431 83.4241C9.60822 83.4162 9.64931 83.3928 9.70907 83.3456C9.76687 83.2998 9.83535 83.2373 9.91338 83.1593C10.0693 83.0032 10.258 82.7906 10.4675 82.5394C10.8863 82.0373 11.3834 81.3874 11.8607 80.7431C12.3377 80.0991 12.7941 79.4619 13.1312 78.9856C13.2998 78.7474 13.4385 78.5496 13.5351 78.4113C13.5834 78.3421 13.6211 78.2879 13.6468 78.2509L13.686 78.1944Z" fill="#007867"/>
<path fill-rule="evenodd" clip-rule="evenodd" d="M13.1751 79.0421C13.1751 78.9846 13.2218 78.9379 13.2793 78.9379H14.0915C14.149 78.9379 14.1957 78.9846 14.1957 79.0421C14.1957 79.0996 14.149 79.1463 14.0915 79.1463H13.2793C13.2218 79.1463 13.1751 79.0996 13.1751 79.0421Z" fill="#007867"/>
<path fill-rule="evenodd" clip-rule="evenodd" d="M13.2226 80.8838C13.2251 80.9413 13.1805 80.9899 13.123 80.9923L11.8486 81.0471C11.7912 81.0496 11.7426 81.005 11.7401 80.9475C11.7376 80.8901 11.7822 80.8415 11.8397 80.839L13.1141 80.7842C13.1715 80.7817 13.2201 80.8263 13.2226 80.8838Z" fill="#007867"/>
<path fill-rule="evenodd" clip-rule="evenodd" d="M12.3214 79.3088C12.3777 79.2971 12.4329 79.3333 12.4446 79.3896L12.5829 80.0535C12.5946 80.1099 12.5585 80.165 12.5021 80.1768C12.4458 80.1885 12.3906 80.1523 12.3789 80.096L12.2406 79.4321C12.2289 79.3757 12.2651 79.3206 12.3214 79.3088Z" fill="#007867"/>
<path fill-rule="evenodd" clip-rule="evenodd" d="M10.9843 81.3261C11.0418 81.3237 11.0903 81.3684 11.0927 81.4259L11.1176 82.0288C11.12 82.0863 11.0753 82.1348 11.0179 82.1372C10.9604 82.1395 10.9119 82.0949 10.9095 82.0374L10.8846 81.4345C10.8822 81.377 10.9269 81.3285 10.9843 81.3261Z" fill="#007867"/>
<defs>
<linearGradient id="paint0_linear_4900_820" x1="41.9283" y1="32.1831" x2="21.7461" y2="91.7768" gradientUnits="userSpaceOnUse">
<stop stop-color="#00A76F"/>
<stop offset="1" stop-color="#007867"/>
</linearGradient>
</defs>
</svg>
