<svg width="480" height="360" viewBox="0 0 480 360" fill="none" xmlns="http://www.w3.org/2000/svg">
<g opacity="0.2">
<mask id="mask0_0_8956" style="mask-type:alpha" maskUnits="userSpaceOnUse" x="0" y="0" width="480" height="360">
<path opacity="0.48" fill-rule="evenodd" clip-rule="evenodd" d="M0 198.781C0 240.238 14.9454 278.016 39.539 306.566C67.7534 339.331 108.667 359.931 154.273 360C174.204 360.029 193.262 356.113 210.768 348.964C219.819 345.265 229.95 345.69 238.716 350.071C248.999 355.204 260.514 358.082 272.673 358.082C277.696 358.082 282.615 357.587 287.373 356.648C300.954 353.978 313.313 347.658 323.462 338.708C329.841 333.081 338.01 330.252 346.36 330.262H346.502C374.091 330.262 399.717 321.53 420.994 306.566C440.015 293.206 455.548 274.87 465.898 253.341C474.92 234.581 480 213.388 480 190.958C480 114.027 420.226 51.6534 346.502 51.6534C338.986 51.6534 331.622 52.3158 324.439 53.5518C305.418 21.4201 271.355 0 232.498 0C216.093 0 200.54 3.81769 186.619 10.6612C173.379 17.1483 161.608 26.3663 151.978 37.6C119.281 38.144 89.048 49.2899 64.303 67.8914C25.3514 97.1552 0 144.882 0 198.781Z" fill="url(#paint0_linear_0_8956)"/>
</mask>
<g mask="url(#mask0_0_8956)">
<rect width="480" height="360" fill="#00A76F"/>
</g>
</g>
<path opacity="0.05" d="M293.006 206.192C290.757 208.864 288.33 208.82 286.883 208.443L286.937 207.059C286.937 207.059 292.916 204.326 292.764 204.9C292.707 205.115 292.82 205.633 293.006 206.192Z" fill="#FF5630"/>
<path opacity="0.05" d="M309.393 209.217C305.575 211.423 303.336 208.837 302.815 208.105C303.135 207.265 303.617 205.901 303.518 205.513C303.375 204.936 309.345 207.668 309.345 207.668L309.393 209.217Z" fill="#FF5630"/>
<path opacity="0.05" d="M305.303 187.204C305.303 187.204 308.935 185.111 309.728 186.053C310.52 186.994 305.303 187.204 305.303 187.204Z" fill="#FF5630"/>
<path opacity="0.05" d="M307.497 188.355C307.497 188.355 306.899 188.654 308.217 189.036C309.536 189.419 307.497 188.355 307.497 188.355Z" fill="#FF5630"/>
<path opacity="0.05" d="M285.532 182.599C285.409 182.635 288.554 184.722 291.395 182.994C291.383 182.994 286.24 182.384 285.532 182.599Z" fill="#FF5630"/>
<path opacity="0.05" d="M291.239 186.591C291.239 186.591 290.378 188.283 288.614 188.534C286.85 188.785 291.239 186.591 291.239 186.591Z" fill="#FF5630"/>
<path opacity="0.05" d="M302.785 190.262C302.785 190.262 306.923 196.84 306.131 198.391C305.338 199.943 302.785 190.262 302.785 190.262Z" fill="#FF5630"/>
<path opacity="0.05" d="M294.621 216.416C294.621 216.784 294.621 217.128 294.585 217.412C294.477 218.742 291.204 218.24 291.204 218.24C288.214 218.655 287.138 217.22 286.782 215.848C286.67 215.402 286.615 214.944 286.617 214.485C286.615 214.211 286.633 213.937 286.671 213.666V213.394C287.315 213.199 288.014 213.342 288.531 213.773C289.861 214.853 291.625 214.024 291.625 214.024C291.625 214.024 292.92 214.132 293.419 214.563C293.7 214.805 294.163 214.222 294.516 213.666C294.537 214.024 294.57 214.673 294.591 215.367C294.615 215.723 294.621 216.081 294.621 216.416Z" fill="#FF5630"/>
<path opacity="0.05" d="M289.371 216.338C289.371 216.338 288.474 217.217 286.782 215.86C286.67 215.414 286.615 214.956 286.617 214.497C287.481 215.155 289.084 216.338 289.371 216.338Z" fill="#FF5630"/>
<path opacity="0.05" d="M294.62 216.416C294.473 216.53 294.285 216.578 294.101 216.548C293.917 216.519 293.753 216.415 293.648 216.261C293.997 215.995 294.318 215.695 294.605 215.364C294.614 215.723 294.62 216.081 294.62 216.416Z" fill="#FF5630"/>
<path opacity="0.05" d="M301.637 217.032C301.637 217.403 301.637 217.747 301.67 218.028C301.778 219.361 305.052 218.856 305.052 218.856C308.041 219.274 309.118 217.839 309.473 216.464C309.65 215.75 309.687 215.009 309.584 214.282V214.009C308.939 213.819 308.241 213.961 307.722 214.389C306.391 215.468 304.63 214.64 304.63 214.64C304.63 214.64 303.336 214.751 302.836 215.181C302.555 215.424 302.092 214.841 301.742 214.285C301.721 214.643 301.685 215.292 301.664 215.986C301.64 216.336 301.634 216.694 301.637 217.032Z" fill="#FF5630"/>
<path opacity="0.05" d="M306.888 216.949C306.888 216.949 307.785 217.828 309.474 216.47C309.587 216.026 309.643 215.569 309.641 215.11C308.774 215.765 307.172 216.949 306.888 216.949Z" fill="#FF5630"/>
<path opacity="0.05" d="M301.637 217.032C301.785 217.146 301.972 217.194 302.155 217.164C302.339 217.135 302.502 217.031 302.606 216.877C302.257 216.612 301.936 216.311 301.649 215.98C301.64 216.336 301.635 216.694 301.637 217.032Z" fill="#FF5630"/>
<path fill-rule="evenodd" clip-rule="evenodd" d="M157.592 279.461C156.868 278.588 156.536 277.456 156.675 276.33L169.871 168.351L170.965 159.381C171.219 157.318 172.964 155.762 175.043 155.746L213.697 155.489C214.809 155.482 215.872 155.028 216.645 154.228C217.418 153.429 217.836 152.352 217.805 151.24L217.79 150.831C217.752 149.71 218.171 148.621 218.95 147.815C219.73 147.008 220.804 146.553 221.925 146.552H262.544C264.824 146.552 266.673 148.398 266.678 150.678C266.678 150.864 266.666 151.05 266.642 151.234C266.487 152.398 266.833 153.573 267.595 154.466C268.357 155.36 269.463 155.887 270.637 155.916L309.647 156.912C310.847 156.941 311.975 157.492 312.737 158.419C313.5 159.347 313.821 160.56 313.617 161.743L294.115 275.652L293.747 277.804C293.656 278.354 293.453 278.879 293.149 279.347L157.592 279.461Z" fill="#004B50"/>
<rect x="275.314" y="123.676" width="22.8415" height="77.5265" transform="rotate(34.64 275.314 123.676)" fill="white"/>
<rect x="276.669" y="126.698" width="16.1257" height="16.1257" transform="rotate(34.804 276.669 126.698)" fill="#FFAB00"/>
<rect opacity="0.5" x="266.296" y="142.655" width="16.1475" height="16.1475" transform="rotate(34.64 266.296 142.655)" fill="#FFAB00"/>
<rect opacity="0.3" x="255.212" y="158.694" width="16.1475" height="16.1475" transform="rotate(34.64 255.212 158.694)" fill="#FFAB00"/>
<rect x="248.764" y="119.681" width="22.8415" height="77.2335" transform="rotate(16.29 248.764 119.681)" fill="white"/>
<rect x="251.642" y="121.821" width="16.1475" height="16.1475" transform="rotate(16.29 251.642 121.821)" fill="#FF5630"/>
<rect opacity="0.5" x="246.173" y="140.533" width="16.1475" height="16.1475" transform="rotate(16.29 246.173 140.533)" fill="#FF5630"/>
<rect opacity="0.3" x="240.705" y="159.242" width="16.1475" height="16.1475" transform="rotate(16.29 240.705 159.242)" fill="#FF5630"/>
<rect x="233.233" y="120.85" width="22.8415" height="77.2335" transform="rotate(4.6 233.233 120.85)" fill="white"/>
<rect x="236.474" y="122.364" width="16.1475" height="16.1475" transform="rotate(4.6 236.474 122.364)" fill="#00B8D9"/>
<rect opacity="0.5" x="234.908" y="141.792" width="16.1475" height="16.1475" transform="rotate(4.6 234.908 141.792)" fill="#00B8D9"/>
<rect opacity="0.3" x="233.346" y="161.225" width="16.1475" height="16.1475" transform="rotate(4.6 233.346 161.225)" fill="#00B8D9"/>
<rect x="222.99" y="123.945" width="22.8415" height="77.2335" transform="rotate(-2.61 222.99 123.945)" fill="white"/>
<rect x="226.392" y="125.036" width="16.1475" height="16.1475" transform="rotate(-2.61 226.392 125.036)" fill="#00A76F"/>
<rect opacity="0.5" x="227.912" y="143.893" width="16.1677" height="16.1677" transform="rotate(-2.86241 227.912 143.893)" fill="#00A76F"/>
<rect opacity="0.3" x="228.166" y="163.985" width="16.1475" height="16.1475" transform="rotate(-2.61 228.166 163.985)" fill="#00A76F"/>
<path d="M232.679 225.726L212.385 233.577L182.724 245.043C181.603 242.95 179.953 240.122 177.911 236.746C170.885 225.104 159.261 206.996 148.91 191.081C137.25 173.143 127.214 158.006 127.214 158.006L134.479 155.913L193.825 138.683L232.679 225.726Z" fill="#F4F6F8"/>
<path opacity="0.1" d="M232.679 225.726L212.385 233.577C201.048 235.939 189.479 237.002 177.901 236.746C170.875 225.104 159.251 206.996 148.901 191.081L134.481 155.901L193.824 138.683L232.679 225.726Z" fill="black"/>
<path d="M247.777 220.841C247.777 220.841 216.25 239.491 169.18 235.272L131.656 143.787L149.639 140.696L211.808 130.019L247.086 219.062L247.777 220.841Z" fill="#00A76F"/>
<path opacity="0.1" d="M247.075 219.074C239.651 219.439 231.062 219.403 222.421 218.372C213.07 217.271 203.664 215.005 195.601 210.849C188.859 207.378 183.095 203.602 178.069 199.073C164.995 187.314 156.905 170.494 149.64 140.708L211.808 130.031L247.075 219.074Z" fill="#FF5630"/>
<path d="M270.203 213.959C270.203 213.959 246.964 218.509 223.309 215.708C213.957 214.608 204.552 212.341 196.488 208.186C189.747 204.715 183.985 200.939 178.957 196.409C162.776 181.852 154.232 159.543 145.421 114.491C145.421 114.491 184.054 123.816 222.257 103.39C222.245 103.405 235.122 183.763 270.203 213.959Z" fill="white"/>
<g opacity="0.3">
<path d="M165.404 131.03C165.404 131.03 196.82 129.254 205.592 122.482L206.923 126.757C206.923 126.757 186.165 135.915 165.404 136.026V131.03Z" fill="#00A76F"/>
<path d="M165.404 152.137C165.404 152.137 195.822 150.472 218.804 139.371L219.581 141.147C219.581 141.147 201.344 151.793 165.404 154.58V152.137Z" fill="#00A76F"/>
<path d="M167.854 160.362C167.854 160.362 198.271 158.697 221.25 147.596L222.027 149.372C222.027 149.372 203.79 160.015 167.854 162.805V160.362Z" fill="#00A76F"/>
<path d="M170.299 168.599C170.299 168.599 200.716 166.933 223.698 155.833L224.473 157.608C224.473 157.608 206.235 168.255 170.299 171.041V168.599Z" fill="#00A76F"/>
<path d="M172.747 176.835C172.747 176.835 203.165 175.17 226.144 164.069L226.921 165.845C226.921 165.845 208.684 176.492 172.747 179.278V176.835Z" fill="#00A76F"/>
<path d="M175.192 185.075C175.192 185.075 205.61 183.41 228.592 172.309L229.366 174.085C229.366 174.085 211.129 184.728 175.192 187.518V185.075Z" fill="#00A76F"/>
</g>
<path d="M389.068 287.345C389.068 287.345 376.428 286.582 377.917 295.441C377.917 295.441 377.618 297.004 379.041 297.716C379.041 297.716 379.062 297.058 380.336 297.282C380.79 297.359 381.251 297.381 381.711 297.348C382.331 297.307 382.92 297.063 383.388 296.655C383.388 296.655 386.943 295.187 388.324 289.381C388.324 289.381 389.347 288.113 389.305 287.787L387.173 288.684C387.173 288.684 387.903 290.224 387.328 291.5C387.328 291.5 387.26 288.741 386.85 288.81C386.766 288.81 385.741 289.342 385.741 289.342C385.741 289.342 386.994 292.032 386.04 293.97C386.04 293.97 386.399 290.666 385.34 289.536L383.845 290.412C383.845 290.412 385.31 293.181 384.318 295.441C384.318 295.441 384.572 291.976 383.529 290.624L382.168 291.686C382.168 291.686 383.546 294.415 382.706 296.29C382.706 296.29 382.596 292.254 381.872 291.949C381.872 291.949 380.676 292.998 380.503 293.444C380.503 293.444 381.445 295.423 380.859 296.469C380.859 296.469 380.5 293.778 380.207 293.778C380.207 293.778 379.011 295.572 378.897 296.768C378.897 296.768 378.948 294.95 379.92 293.596C379.235 293.727 378.604 294.054 378.102 294.538C378.102 294.538 378.288 293.276 380.213 293.169C380.213 293.169 381.194 291.817 381.454 291.733C381.454 291.733 379.54 291.575 378.38 292.089C378.38 292.089 379.403 290.893 381.806 291.44L383.149 290.346C383.149 290.346 380.629 289.999 379.561 290.382C379.561 290.382 380.79 289.33 383.511 290.083L384.973 289.21C384.973 289.21 382.826 288.747 381.546 288.911C381.546 288.911 382.895 288.182 385.403 288.971L386.447 288.502C386.447 288.502 384.874 288.203 384.413 288.143C383.953 288.083 383.926 287.969 383.926 287.969C384.923 287.801 385.947 287.915 386.883 288.298C386.883 288.298 389.104 287.485 389.068 287.345Z" fill="#00A76F"/>
<path d="M394.956 258.102C394.956 258.102 387.831 257.672 388.677 262.667C388.588 263.186 388.842 263.704 389.308 263.95C389.308 263.95 389.323 263.579 390.041 263.705C390.296 263.747 390.556 263.759 390.815 263.741C391.164 263.718 391.496 263.582 391.76 263.352C391.76 263.352 393.763 262.524 394.543 259.25C394.543 259.25 395.12 258.536 395.096 258.353L393.9 258.864C393.9 258.864 394.31 259.734 393.987 260.455C393.987 260.455 393.948 258.897 393.718 258.933C393.67 258.933 393.093 259.232 393.093 259.232C393.093 259.232 393.799 260.727 393.266 261.842C393.266 261.842 393.47 259.98 392.872 259.34L392.026 259.836C392.026 259.836 392.851 261.397 392.292 262.67C392.292 262.67 392.435 260.715 391.846 259.956L391.081 260.554C391.081 260.554 391.855 262.093 391.38 263.149C391.38 263.149 391.317 260.874 390.911 260.703C390.62 260.949 390.36 261.229 390.136 261.537C390.136 261.537 390.668 262.655 390.34 263.244C390.34 263.244 390.136 261.729 389.972 261.723C389.972 261.723 389.302 262.724 389.233 263.412C389.266 262.774 389.465 262.155 389.81 261.618C389.424 261.691 389.067 261.876 388.785 262.15C388.785 262.15 388.889 261.439 389.981 261.379C389.981 261.379 390.534 260.616 390.68 260.569C390.68 260.569 389.601 260.479 388.946 260.769C388.946 260.769 389.523 260.099 390.878 260.404L391.637 259.785C391.637 259.785 390.214 259.591 389.613 259.806C389.613 259.806 390.307 259.208 391.84 259.645L392.666 259.151C392.031 259.012 391.38 258.957 390.731 258.987C390.731 258.987 391.494 258.574 392.905 259.02L393.503 258.757C393.503 258.757 392.606 258.58 392.355 258.554C392.103 258.527 392.08 258.455 392.08 258.455C392.642 258.361 393.22 258.425 393.748 258.64C393.748 258.64 394.98 258.18 394.956 258.102Z" fill="#00A76F"/>
<path d="M352.896 262.437C352.896 262.437 344.292 261.917 345.308 267.947C345.2 268.574 345.508 269.199 346.07 269.496C346.07 269.496 346.07 269.047 346.967 269.197C347.276 269.249 347.591 269.264 347.903 269.242C348.325 269.214 348.727 269.048 349.045 268.769C349.045 268.769 351.464 267.771 352.406 263.818C352.406 263.818 353.102 262.957 353.072 262.733L351.604 263.355C351.604 263.355 352.101 264.401 351.709 265.271C351.709 265.271 351.661 263.394 351.383 263.436C351.326 263.436 350.63 263.8 350.63 263.8C350.63 263.8 351.482 265.624 350.839 266.952C350.839 266.952 351.084 264.703 350.364 263.932L349.341 264.53C349.341 264.53 350.337 266.416 349.661 267.953C349.661 267.953 349.835 265.594 349.126 264.664L348.199 265.388C348.199 265.388 349.138 267.245 348.564 268.521C348.564 268.521 348.492 265.774 347.999 265.567C347.999 265.567 347.189 266.282 347.066 266.575C347.066 266.575 347.706 267.923 347.308 268.635C347.308 268.635 347.063 266.805 346.863 266.796C346.863 266.796 346.058 268.01 345.966 268.838C346.006 268.07 346.246 267.326 346.662 266.679C346.197 266.768 345.767 266.992 345.428 267.322C345.428 267.322 345.553 266.464 346.863 266.389C346.863 266.389 347.529 265.469 347.709 265.415C347.709 265.415 346.405 265.304 345.616 265.654C345.616 265.654 346.31 264.847 347.945 265.214L348.86 264.467C348.86 264.467 347.147 264.234 346.417 264.491C346.417 264.491 347.254 263.776 349.108 264.3L350.104 263.702C350.104 263.702 348.642 263.388 347.769 263.501C347.769 263.501 348.689 263.005 350.394 263.543L351.105 263.223C351.105 263.223 350.035 263.014 349.721 262.981C349.407 262.948 349.392 262.862 349.392 262.862C350.07 262.747 350.767 262.823 351.404 263.083C351.404 263.083 352.923 262.53 352.896 262.437Z" fill="#00A76F"/>
<rect x="278.132" y="125.014" width="51.0256" height="91.3121" rx="4.73723" transform="rotate(-71.99 278.132 125.014)" fill="white"/>
<g opacity="0.24">
<path d="M312.989 103.507C312.989 108.685 308.791 112.883 303.613 112.883C298.435 112.883 294.237 108.685 294.237 103.507C294.237 98.3288 298.435 94.1311 303.613 94.1311C308.791 94.1311 312.989 98.3288 312.989 103.507Z" fill="#00A76F"/>
<path d="M326.046 101.819L326.84 99.3767L365.687 112.006L364.893 114.449L326.046 101.819Z" fill="#00A76F"/>
<path d="M324.021 108.046L324.815 105.603L344.604 112.037L343.81 114.479L324.021 108.046Z" fill="#00A76F"/>
<path d="M321.993 114.277L322.787 111.834L354.793 122.24L353.999 124.682L321.993 114.277Z" fill="#00A76F"/>
<path d="M319.969 120.505L320.763 118.063L359.61 130.692L358.816 133.135L319.969 120.505Z" fill="#00A76F"/>
</g>
<rect opacity="0.5" x="344.401" y="140.914" width="4.96593" height="11.3041" transform="rotate(-71.99 344.401 140.914)" fill="#00A76F"/>
<rect x="270.165" y="213.622" width="50.3003" height="78.3046" rx="4" transform="rotate(-57.2648 270.165 213.622)" fill="white"/>
<path d="M311.101 227.17L327.861 200.79L330.453 202.437L313.692 228.817L311.101 227.17Z" fill="#F4F6F8"/>
<path d="M316.637 230.685L333.398 204.305L335.989 205.951L319.228 232.332L316.637 230.685Z" fill="#F4F6F8"/>
<path d="M279.926 210.67L287.557 198.659L290.384 200.454L282.752 212.466L279.926 210.67Z" fill="#C4CDD5"/>
<path d="M288.959 213.104L305.72 186.723L308.311 188.37L291.551 214.75L288.959 213.104Z" fill="#C4CDD5"/>
<path d="M294.495 216.618L311.256 190.238L313.848 191.884L297.087 218.264L294.495 216.618Z" fill="#C4CDD5"/>
<path d="M300.03 220.138L316.791 193.758L319.383 195.404L302.622 221.784L300.03 220.138Z" fill="#C4CDD5"/>
<path d="M305.758 225.238L322.635 198.984L325.214 200.642L308.337 226.896L305.758 225.238Z" fill="#C4CDD5"/>
<path d="M339.879 215.699L344.219 208.868L351.05 213.209L346.71 220.04L339.879 215.699Z" fill="#C4CDD5"/>
<path d="M269.276 168.76L223.509 169.253C221.796 169.271 220.417 170.665 220.415 172.378V176.16C220.414 177.856 219.061 179.242 217.366 179.284L184.341 180.076C182.901 180.112 181.623 179.159 181.247 177.768L179.695 172.067C179.323 170.691 178.067 169.742 176.643 169.759L132.529 170.234C131.615 170.243 130.75 170.652 130.163 171.354C129.576 172.056 129.326 172.98 129.48 173.882L147.227 278.331C147.481 279.83 148.777 280.928 150.297 280.935L289.66 281.533C290.594 281.536 291.48 281.121 292.077 280.403C292.673 279.684 292.917 278.737 292.742 277.819L272.377 171.298C272.093 169.814 270.788 168.745 269.276 168.76Z" fill="url(#paint1_linear_0_8956)"/>
<g opacity="0.2">
<path d="M389.307 298.487C389.307 299.323 385.303 300 380.362 300C375.422 300 371.417 299.323 371.417 298.487C371.417 297.652 375.422 296.974 380.362 296.974C385.303 296.974 389.307 297.652 389.307 298.487Z" fill="#00A76F"/>
<path d="M395.096 264.383C395.096 264.854 392.838 265.235 390.052 265.235C387.267 265.235 385.009 264.854 385.009 264.383C385.009 263.913 387.267 263.531 390.052 263.531C392.838 263.531 395.096 263.913 395.096 264.383Z" fill="#00A76F"/>
<path d="M353.061 270.022C353.061 270.59 350.334 271.051 346.971 271.051C343.607 271.051 340.881 270.59 340.881 270.022C340.881 269.454 343.607 268.994 346.971 268.994C350.334 268.994 353.061 269.454 353.061 270.022Z" fill="#00A76F"/>
<path d="M124.44 258.664C124.44 259.032 122.27 259.331 119.593 259.331C116.917 259.331 114.747 259.032 114.747 258.664C114.747 258.296 116.917 257.997 119.593 257.997C122.27 257.997 124.44 258.296 124.44 258.664Z" fill="#00A76F"/>
<path d="M105.876 260.545C105.876 260.913 103.706 261.211 101.03 261.211C98.3534 261.211 96.1836 260.913 96.1836 260.545C96.1836 260.176 98.3534 259.878 101.03 259.878C103.706 259.878 105.876 260.176 105.876 260.545Z" fill="#00A76F"/>
<path d="M111.904 265.905C111.904 266.166 110.362 266.378 108.46 266.378C106.558 266.378 105.016 266.166 105.016 265.905C105.016 265.644 106.558 265.433 108.46 265.433C110.362 265.433 111.904 265.644 111.904 265.905Z" fill="#00A76F"/>
<path d="M92.6373 265.433C92.6373 265.694 91.0953 265.905 89.1932 265.905C87.291 265.905 85.749 265.694 85.749 265.433C85.749 265.172 87.291 264.96 89.1932 264.96C91.0953 264.96 92.6373 265.172 92.6373 265.433Z" fill="#00A76F"/>
</g>
<path d="M87.2951 264.356C87.0784 264.179 86.921 263.941 86.8436 263.672C86.7674 263.394 86.9007 263.101 87.1605 262.975C87.4595 262.865 87.7585 263.065 87.9976 263.274C88.2368 263.483 88.5089 263.705 88.8079 263.654C88.4851 263.361 88.3398 262.921 88.4252 262.494C88.4374 262.407 88.4737 262.325 88.5298 262.258C88.6913 262.084 88.9842 262.159 89.1786 262.297C89.7765 262.727 89.9649 263.561 89.9679 264.315C89.9978 264.038 89.9978 263.76 89.9679 263.483C89.9518 263.201 90.0773 262.928 90.3027 262.757C90.4483 262.678 90.6123 262.638 90.7781 262.643C91.0559 262.604 91.3375 262.684 91.5524 262.865C91.7618 263.15 91.7495 263.541 91.5225 263.812C91.2935 264.069 91.0226 264.286 90.7213 264.452C90.4926 264.59 90.2975 264.777 90.1502 264.999C90.1322 265.029 90.1181 265.061 90.1084 265.095H88.3684C87.9789 264.898 87.6178 264.65 87.2951 264.356Z" fill="#00A76F"/>
<path d="M117.625 257.833C117.408 257.658 117.251 257.42 117.174 257.151C117.097 256.874 117.229 256.581 117.488 256.455C117.787 256.344 118.086 256.544 118.325 256.754C118.564 256.963 118.833 257.19 119.141 257.145C118.818 256.854 118.672 256.415 118.756 255.988C118.769 255.901 118.806 255.819 118.863 255.752C119.025 255.579 119.318 255.653 119.512 255.788C120.125 256.221 120.298 257.056 120.301 257.809C120.331 257.532 120.331 257.252 120.301 256.975C120.274 256.695 120.386 256.421 120.6 256.239C120.746 256.162 120.91 256.124 121.076 256.129C121.353 256.09 121.634 256.169 121.85 256.347C122.06 256.633 122.046 257.026 121.817 257.298C121.59 257.555 121.32 257.772 121.019 257.938C120.79 258.074 120.595 258.26 120.448 258.482C120.43 258.513 120.416 258.546 120.406 258.58H118.705C118.312 258.382 117.949 258.13 117.625 257.833Z" fill="#00A76F"/>
<path d="M107.518 264.356C107.301 264.179 107.143 263.94 107.063 263.672C106.987 263.393 107.12 263.1 107.38 262.975C107.679 262.865 107.978 263.065 108.217 263.274C108.457 263.483 108.723 263.711 109.034 263.669C108.711 263.376 108.565 262.936 108.648 262.509C108.661 262.422 108.698 262.34 108.756 262.273C108.917 262.099 109.21 262.174 109.404 262.311C110.017 262.742 110.188 263.576 110.194 264.329C110.223 264.053 110.223 263.775 110.194 263.498C110.17 263.216 110.288 262.941 110.507 262.763C110.653 262.683 110.817 262.644 110.983 262.649C111.261 262.61 111.542 262.69 111.757 262.871C111.967 263.156 111.953 263.548 111.724 263.818C111.496 264.075 111.226 264.291 110.926 264.458C110.697 264.596 110.502 264.783 110.355 265.005C110.337 265.035 110.323 265.067 110.313 265.101H108.579C108.194 264.901 107.837 264.651 107.518 264.356Z" fill="#00A76F"/>
<g opacity="0.08">
<path d="M90.9335 87.0031C90.9335 90.5746 88.0383 93.4699 84.4668 93.4699C80.8953 93.4699 78 90.5746 78 87.0031C78 83.4316 80.8953 80.5364 84.4668 80.5364C88.0383 80.5364 90.9335 83.4316 90.9335 87.0031Z" fill="#00A76F"/>
<path d="M401.892 138.68C401.892 142.252 398.996 145.147 395.425 145.147C391.853 145.147 388.958 142.252 388.958 138.68C388.958 135.109 391.853 132.214 395.425 132.214C398.996 132.214 401.892 135.109 401.892 138.68Z" fill="#00A76F"/>
<path d="M285.645 66.4668C285.645 70.0383 282.75 72.9335 279.179 72.9335C275.607 72.9335 272.712 70.0383 272.712 66.4668C272.712 62.8953 275.607 60 279.179 60C282.75 60 285.645 62.8953 285.645 66.4668Z" fill="#00A76F"/>
<path d="M108.238 122.68C108.238 128.665 103.386 133.517 97.4002 133.517C91.4147 133.517 86.5625 128.665 86.5625 122.68C86.5625 116.694 91.4147 111.842 97.4002 111.842C103.386 111.842 108.238 116.694 108.238 122.68Z" fill="#00A76F"/>
</g>
<path fill-rule="evenodd" clip-rule="evenodd" d="M206.029 209.911C198.054 209.911 191.589 216.376 191.589 224.351C191.589 232.326 198.054 238.791 206.029 238.791C214.004 238.791 220.47 232.326 220.47 224.351C220.47 216.376 214.004 209.911 206.029 209.911V209.911Z" fill="#007867"/>
<path opacity="0.72" fill-rule="evenodd" clip-rule="evenodd" d="M206.029 211.59C213.077 211.59 218.79 217.303 218.79 224.351C218.79 231.398 213.077 237.112 206.029 237.112C198.982 237.112 193.269 231.398 193.269 224.351C193.275 217.306 198.984 211.597 206.029 211.59Z" fill="#00A76F"/>
<path fill-rule="evenodd" clip-rule="evenodd" d="M200.058 225.406L199.36 224.724C199.209 224.587 199.123 224.394 199.123 224.192C199.123 223.99 199.209 223.798 199.36 223.66L205.486 217.675C205.628 217.528 205.825 217.445 206.032 217.445C206.239 217.445 206.436 217.528 206.577 217.675L212.704 223.654C212.852 223.794 212.936 223.986 212.936 224.187C212.936 224.388 212.852 224.58 212.704 224.719L212.006 225.401C211.863 225.545 211.666 225.627 211.46 225.627C211.254 225.627 211.057 225.545 210.915 225.401L207.292 221.674V230.517C207.293 230.713 207.215 230.901 207.073 231.04C206.932 231.179 206.74 231.257 206.539 231.257H205.53C205.111 231.257 204.772 230.926 204.772 230.517V221.684L201.149 225.411C201.005 225.555 200.808 225.636 200.602 225.635C200.397 225.634 200.2 225.551 200.058 225.406Z" fill="#007867"/>
<path d="M100.925 260.398C100.925 260.398 107.72 238.119 99.8605 229.194C93.9797 222.518 87.3036 223.317 84.3139 224.142C82.7494 224.56 81.4468 225.643 80.7502 227.105C79.7038 229.359 79.8921 233.018 87.2708 237.291C99.6213 244.442 100.39 254.251 100.39 254.251L100.925 260.398Z" fill="#00A76F"/>
<path d="M101.201 260.574C101.201 260.574 93.2393 244.382 91.0538 244.729C90.0164 244.899 89.538 245.925 89.3198 246.947C89.0514 248.274 89.2029 249.651 89.7533 250.888C90.8834 253.489 93.9179 258.407 101.201 260.574Z" fill="#00A76F"/>
<path d="M100.964 260.574C100.964 260.574 108.923 244.382 111.108 244.729C112.148 244.899 112.627 245.925 112.842 246.947C113.11 248.274 112.959 249.651 112.409 250.888C111.278 253.489 108.241 258.407 100.964 260.574Z" fill="#00A76F"/>
<path fill-rule="evenodd" clip-rule="evenodd" d="M85.1433 227.227C85.1846 227.095 85.3249 227.022 85.4566 227.063L85.3819 227.302C85.4566 227.063 85.4566 227.063 85.4566 227.063L85.4582 227.064L85.4615 227.065L85.4736 227.069L85.5189 227.084C85.5583 227.097 85.616 227.117 85.6906 227.144C85.8397 227.198 86.0564 227.279 86.3298 227.393C86.8765 227.62 87.6501 227.974 88.5634 228.483C90.3894 229.501 92.7765 231.14 95.0224 233.626C99.5222 238.606 103.43 246.957 101.175 260.439C101.152 260.575 101.023 260.667 100.887 260.645C100.751 260.622 100.659 260.493 100.682 260.357C102.912 247.021 99.046 238.824 94.6514 233.961C92.45 231.525 90.1096 229.918 88.3199 228.92C87.4253 228.422 86.6691 228.076 86.1379 227.855C85.8723 227.744 85.663 227.665 85.5209 227.614C85.4498 227.588 85.3956 227.57 85.3595 227.558L85.3192 227.544L85.3095 227.541L85.3074 227.54C85.1757 227.499 85.102 227.359 85.1433 227.227Z" fill="#007867"/>
<path fill-rule="evenodd" clip-rule="evenodd" d="M97.291 229.407C97.3681 229.522 97.3379 229.677 97.2236 229.754L97.2228 229.755L97.2183 229.758L97.1983 229.772C97.1803 229.785 97.1532 229.805 97.1186 229.831C97.0492 229.884 96.9497 229.964 96.8324 230.068C96.5974 230.277 96.2938 230.583 96.0174 230.971C95.4651 231.747 95.0335 232.829 95.4416 234.127C95.4831 234.259 95.4099 234.399 95.2781 234.441C95.1464 234.482 95.0061 234.409 94.9647 234.277C94.4938 232.78 95.0025 231.535 95.6102 230.681C95.9138 230.255 96.2451 229.922 96.5 229.695C96.6278 229.581 96.737 229.493 96.8151 229.434C96.8542 229.404 96.8855 229.381 96.9075 229.365L96.9333 229.347L96.9406 229.342L96.9428 229.341L96.9438 229.34C96.9438 229.34 96.944 229.34 97.0788 229.54L96.9438 229.34C97.0583 229.263 97.2138 229.293 97.291 229.407Z" fill="#007867"/>
<path fill-rule="evenodd" clip-rule="evenodd" d="M87.569 231.379L87.5714 231.376L87.5832 231.365C87.5942 231.354 87.6114 231.338 87.6343 231.317C87.6802 231.276 87.7491 231.217 87.8385 231.148C88.0178 231.011 88.2766 230.837 88.5946 230.691C89.2291 230.401 90.0849 230.228 91.0261 230.662C91.1514 230.72 91.3 230.665 91.3578 230.54C91.4156 230.415 91.3609 230.266 91.2355 230.208C90.1228 229.695 89.1085 229.906 88.3864 230.237C88.0261 230.402 87.735 230.597 87.5339 230.752C87.4331 230.829 87.3543 230.897 87.3 230.946C87.2728 230.97 87.2517 230.99 87.237 231.004L87.2197 231.021L87.2148 231.026L87.2133 231.027L87.2125 231.028C87.2125 231.028 87.2123 231.028 87.3907 231.203L87.2125 231.028C87.1157 231.127 87.117 231.285 87.2154 231.382C87.3139 231.479 87.4722 231.477 87.569 231.379Z" fill="#007867"/>
<path fill-rule="evenodd" clip-rule="evenodd" d="M95.4232 240.055L95.4243 240.055L95.4295 240.052L95.4521 240.041C95.4724 240.031 95.5028 240.017 95.5422 239.999C95.621 239.964 95.7352 239.915 95.8748 239.861C96.1554 239.754 96.5327 239.631 96.9288 239.565C97.3279 239.499 97.7252 239.493 98.0571 239.599C98.3774 239.702 98.646 239.911 98.8073 240.306C98.8595 240.434 99.0054 240.495 99.1333 240.443C99.2611 240.391 99.3224 240.245 99.2702 240.117C99.0489 239.575 98.6601 239.268 98.2096 239.123C97.7707 238.983 97.2838 238.999 96.8466 239.072C96.4062 239.146 95.995 239.28 95.6961 239.394C95.5461 239.452 95.4228 239.505 95.3366 239.543C95.2935 239.563 95.2595 239.579 95.236 239.59L95.2087 239.603L95.2012 239.607L95.199 239.608L95.1981 239.609C95.1981 239.609 95.198 239.609 95.3105 239.832L95.1981 239.609C95.0749 239.671 95.0252 239.821 95.0874 239.944C95.1496 240.068 95.2999 240.117 95.4232 240.055Z" fill="#007867"/>
<path fill-rule="evenodd" clip-rule="evenodd" d="M90.9714 247.603C91.0851 247.524 91.2408 247.553 91.3191 247.666L91.1133 247.808L90.9075 247.95C90.8291 247.837 90.8577 247.681 90.9714 247.603ZM91.1133 247.808C90.9075 247.95 90.9075 247.95 90.9075 247.95L91.002 248.087C91.0637 248.176 91.1544 248.307 91.2703 248.473C91.5021 248.806 91.835 249.281 92.2396 249.854C93.0485 250.999 94.1443 252.531 95.2908 254.081C96.4368 255.63 97.6357 257.198 98.6505 258.415C99.1576 259.022 99.6219 259.546 100.013 259.936C100.208 260.131 100.388 260.295 100.548 260.422C100.704 260.544 100.859 260.645 101.003 260.692C101.134 260.736 101.275 260.664 101.318 260.533C101.362 260.402 101.29 260.261 101.159 260.217C101.101 260.198 101.002 260.142 100.858 260.029C100.718 259.919 100.554 259.769 100.366 259.582C99.9907 259.207 99.5375 258.697 99.0344 258.094C98.029 256.889 96.8369 255.33 95.6927 253.783C94.5491 252.238 93.4556 250.708 92.6479 249.565C92.2441 248.994 91.9118 248.519 91.6805 248.187C91.5649 248.021 91.4745 247.891 91.413 247.802L91.3191 247.666C91.3191 247.666 91.3191 247.666 91.1133 247.808Z" fill="#007867"/>
<path fill-rule="evenodd" clip-rule="evenodd" d="M90.0948 249.701C90.0948 249.563 90.2067 249.451 90.3448 249.451H92.2941C92.4321 249.451 92.5441 249.563 92.5441 249.701C92.5441 249.839 92.4321 249.951 92.2941 249.951H90.3448C90.2067 249.951 90.0948 249.839 90.0948 249.701Z" fill="#007867"/>
<path fill-rule="evenodd" clip-rule="evenodd" d="M92.4299 254.121C92.4359 253.983 92.5525 253.876 92.6905 253.882L95.7489 254.013C95.8869 254.019 95.9939 254.136 95.988 254.274C95.982 254.412 95.8654 254.519 95.7275 254.513L92.669 254.381C92.531 254.375 92.424 254.259 92.4299 254.121Z" fill="#007867"/>
<path fill-rule="evenodd" clip-rule="evenodd" d="M94.5928 250.341C94.728 250.369 94.8147 250.502 94.7866 250.637L94.4547 252.23C94.4266 252.365 94.2942 252.452 94.159 252.424C94.0238 252.396 93.9371 252.263 93.9652 252.128L94.2971 250.535C94.3253 250.4 94.4576 250.313 94.5928 250.341Z" fill="#007867"/>
<path fill-rule="evenodd" clip-rule="evenodd" d="M97.802 255.182C97.94 255.188 98.0472 255.305 98.0415 255.443L97.9817 256.89C97.976 257.027 97.8596 257.135 97.7216 257.129C97.5836 257.123 97.4764 257.007 97.4821 256.869L97.5419 255.422C97.5476 255.284 97.6641 255.177 97.802 255.182Z" fill="#007867"/>
<path fill-rule="evenodd" clip-rule="evenodd" d="M110.846 247.666C110.925 247.553 111.08 247.524 111.194 247.603C111.308 247.681 111.336 247.837 111.257 247.951L111.052 247.808L110.846 247.666ZM110.846 247.666C110.846 247.666 110.846 247.666 111.052 247.808C111.257 247.951 111.257 247.951 111.257 247.951L111.163 248.087C111.101 248.176 111.01 248.307 110.894 248.473C110.662 248.806 110.328 249.282 109.923 249.854C109.112 250.999 108.015 252.531 106.867 254.081C105.72 255.63 104.52 257.198 103.506 258.415C102.999 259.022 102.535 259.546 102.146 259.935C101.951 260.13 101.771 260.295 101.612 260.421C101.457 260.544 101.303 260.645 101.16 260.692C101.029 260.736 100.887 260.665 100.844 260.534C100.8 260.403 100.871 260.261 101.002 260.218C101.06 260.199 101.158 260.143 101.302 260.029C101.44 259.919 101.605 259.769 101.792 259.582C102.166 259.208 102.619 258.697 103.122 258.094C104.127 256.889 105.32 255.33 106.465 253.783C107.61 252.238 108.706 250.708 109.515 249.565C109.919 248.994 110.252 248.519 110.484 248.187C110.6 248.021 110.69 247.891 110.752 247.802L110.846 247.666Z" fill="#007867"/>
<path fill-rule="evenodd" clip-rule="evenodd" d="M109.62 249.701C109.62 249.563 109.732 249.451 109.87 249.451H111.819C111.958 249.451 112.069 249.563 112.069 249.701C112.069 249.839 111.958 249.951 111.819 249.951H109.87C109.732 249.951 109.62 249.839 109.62 249.701Z" fill="#007867"/>
<path fill-rule="evenodd" clip-rule="evenodd" d="M109.734 254.121C109.74 254.259 109.633 254.375 109.495 254.381L106.437 254.513C106.299 254.519 106.182 254.412 106.176 254.274C106.17 254.136 106.277 254.019 106.415 254.013L109.474 253.882C109.611 253.876 109.728 253.983 109.734 254.121Z" fill="#007867"/>
<path fill-rule="evenodd" clip-rule="evenodd" d="M107.571 250.341C107.706 250.313 107.839 250.4 107.867 250.535L108.199 252.128C108.227 252.263 108.14 252.396 108.005 252.424C107.87 252.452 107.737 252.365 107.709 252.23L107.377 250.637C107.349 250.502 107.436 250.369 107.571 250.341Z" fill="#007867"/>
<path fill-rule="evenodd" clip-rule="evenodd" d="M104.362 255.182C104.5 255.177 104.617 255.284 104.622 255.422L104.682 256.869C104.688 257.007 104.581 257.123 104.443 257.129C104.305 257.135 104.188 257.027 104.183 256.89L104.123 255.443C104.117 255.305 104.224 255.188 104.362 255.182Z" fill="#007867"/>
<defs>
<linearGradient id="paint0_linear_0_8956" x1="240" y1="360" x2="426.92" y2="25.2178" gradientUnits="userSpaceOnUse">
<stop/>
<stop offset="1" stop-opacity="0.01"/>
</linearGradient>
<linearGradient id="paint1_linear_0_8956" x1="178.628" y1="137.239" x2="130.191" y2="280.264" gradientUnits="userSpaceOnUse">
<stop stop-color="#00A76F"/>
<stop offset="1" stop-color="#007867"/>
</linearGradient>
</defs>
</svg>
