<svg width="24" height="24" viewBox="0 0 24 24" fill="none" xmlns="http://www.w3.org/2000/svg">
<path d="M6.33057 17.3738C6.33057 17.9222 6.77822 18.3699 7.329 18.3699H8.47041V21.1918C8.47041 21.9066 9.04463 22.4902 9.7501 22.4902C10.4579 22.4902 11.0298 21.9089 11.0298 21.1918V18.3675H13.022V21.1894C13.022 21.9043 13.5962 22.4878 14.3017 22.4878C15.0095 22.4878 15.5813 21.9066 15.5813 21.1894V18.3675H16.7228C17.2735 18.3675 17.7212 17.9199 17.7212 17.3714V8.10894H6.33057V17.3738ZM14.7001 3.30894L15.7524 1.7855C15.8134 1.69644 15.7993 1.57691 15.7173 1.51832C15.6353 1.46207 15.5181 1.49019 15.4571 1.57926L14.3649 3.16363C13.6454 2.88004 12.8438 2.723 12.0024 2.723C11.161 2.723 10.3595 2.88004 9.63994 3.16363L8.54775 1.5816C8.48682 1.49254 8.36963 1.46207 8.2876 1.52066C8.20557 1.57691 8.1915 1.6941 8.25244 1.78785L9.30478 3.31129C7.63135 4.08941 6.45947 5.56363 6.30947 7.28629H17.7001C17.5454 5.56129 16.3712 4.08707 14.7001 3.30894ZM9.59775 5.71129C9.47306 5.71129 9.35116 5.67431 9.24748 5.60503C9.1438 5.53576 9.063 5.43729 9.01528 5.32209C8.96756 5.20688 8.95507 5.08012 8.9794 4.95782C9.00373 4.83552 9.06377 4.72318 9.15195 4.63501C9.24012 4.54684 9.35246 4.48679 9.47476 4.46246C9.59705 4.43814 9.72382 4.45062 9.83902 4.49834C9.95423 4.54606 10.0527 4.62687 10.122 4.73055C10.1912 4.83423 10.2282 4.95612 10.2282 5.08082C10.2278 5.24789 10.1612 5.40801 10.0431 5.52615C9.92494 5.64429 9.76483 5.71085 9.59775 5.71129ZM14.4821 5.71129C14.3574 5.71129 14.2355 5.67431 14.1319 5.60503C14.0282 5.53576 13.9474 5.43729 13.8997 5.32209C13.8519 5.20688 13.8394 5.08012 13.8638 4.95782C13.8881 4.83552 13.9481 4.72318 14.0363 4.63501C14.1245 4.54684 14.2368 4.48679 14.3591 4.46246C14.4814 4.43814 14.6082 4.45062 14.7234 4.49834C14.8386 4.54606 14.9371 4.62687 15.0063 4.73055C15.0756 4.83423 15.1126 4.95612 15.1126 5.08082C15.1122 5.24789 15.0456 5.40801 14.9275 5.52615C14.8093 5.64429 14.6492 5.71085 14.4821 5.71129ZM19.7181 8.07144C19.0103 8.07144 18.4384 8.65269 18.4384 9.36988V14.4418C18.4384 15.1566 19.0126 15.7402 19.7181 15.7402C20.4259 15.7402 20.9978 15.1589 20.9978 14.4418V9.36754C21.0001 8.65035 20.4282 8.07144 19.7181 8.07144ZM4.28213 8.07144C3.57432 8.07144 3.00244 8.65269 3.00244 9.36988V14.4418C3.00244 15.1566 3.57666 15.7402 4.28213 15.7402C4.98994 15.7402 5.56182 15.1589 5.56182 14.4418V9.36754C5.56182 8.65035 4.9876 8.07144 4.28213 8.07144Z" fill="#1D7BF5"/>
</svg>
