<svg width="24" height="24" viewBox="0 0 24 24" fill="none" xmlns="http://www.w3.org/2000/svg">
<path d="M13.0642 6.68494L13.8092 6.37894C14.4142 6.13894 15.1962 5.89394 16.1192 6.04894C18.0102 6.36694 19.3142 7.38794 20.0912 8.74194C20.3912 9.26394 20.1492 9.95194 19.5892 10.1709C19.1095 10.3586 18.6994 10.6898 18.415 11.1194C18.1306 11.5489 17.9858 12.0558 18.0003 12.5707C18.0149 13.0857 18.1881 13.5836 18.4963 13.9963C18.8045 14.4091 19.2326 14.7167 19.7222 14.8769C20.2402 15.0469 20.5322 15.6219 20.3622 16.1399C19.9202 17.4819 19.2842 18.7209 18.5312 19.7209C17.7872 20.7089 16.8792 21.5289 15.8682 21.9299C15.2082 22.1899 14.5002 22.0929 13.8232 21.9249L13.4212 21.8179L12.8242 21.6449C12.5532 21.5659 12.2742 21.4979 12.0002 21.4979C11.7252 21.4979 11.4472 21.5659 11.1762 21.6449L10.5792 21.8179L10.1772 21.9249C9.50021 22.0929 8.7912 22.1909 8.13221 21.9299C6.85921 21.4259 5.73621 20.2499 4.88721 18.8629C3.96807 17.3356 3.36166 15.6407 3.1032 13.8769C2.8762 12.3229 2.9992 10.5779 3.7182 9.10194C4.4582 7.58094 5.81421 6.39694 7.88121 6.04894C8.72121 5.90794 9.4432 6.09694 10.0212 6.31394L10.3522 6.44394L10.9362 6.68494C11.3362 6.84194 11.6512 6.93394 12.0002 6.93394C12.3482 6.93394 12.6642 6.84194 13.0642 6.68494ZM11.7682 2.76794C12.7442 1.79094 14.2432 1.70694 14.5962 2.06094C14.9502 2.41394 14.8662 3.91294 13.8892 4.88894C12.9132 5.86494 11.4142 5.94894 11.0612 5.59594C10.7072 5.24294 10.7912 3.74394 11.7682 2.76794Z" fill="#1D7BF5"/>
</svg>
