<svg width="48" height="48" viewBox="0 0 48 48" fill="none" xmlns="http://www.w3.org/2000/svg">
<g opacity="0.48">
<path d="M9.09977 16.1711C9.09977 20.265 12.4498 23.5457 16.6302 23.5457C20.809 23.5457 24.1606 20.265 24.1606 16.1711C24.1606 12.0772 20.809 8.79651 16.6302 8.79651C12.4498 8.79651 9.09977 12.0772 9.09977 16.1711Z" fill="url(#paint0_linear_4310_37417)"/>
<path d="M28.0109 31.8956C28.0109 28.1059 22.7684 27.1577 16.6305 27.1577C10.4592 27.1577 5.25 28.1385 5.25 31.9312C5.25 35.7209 10.4925 36.6691 16.6305 36.6691C22.8018 36.6691 28.0109 35.6882 28.0109 31.8956Z" fill="url(#paint1_linear_4310_37417)"/>
</g>
<path d="M17.9497 15.6714C17.9497 21.0403 22.3431 25.3428 27.8254 25.3428C33.3057 25.3428 37.7011 21.0403 37.7011 15.6714C37.7011 10.3025 33.3057 6 27.8254 6C22.3431 6 17.9497 10.3025 17.9497 15.6714Z" fill="url(#paint2_linear_4310_37417)"/>
<path d="M42.75 36.2938C42.75 31.3238 35.8748 30.0804 27.8252 30.0804C19.7319 30.0804 12.9004 31.3667 12.9004 36.3405C12.9004 41.3105 19.7756 42.5539 27.8252 42.5539C35.9185 42.5539 42.75 41.2677 42.75 36.2938Z" fill="url(#paint3_linear_4310_37417)"/>
<g opacity="0.48">
<path d="M17.9497 15.6714C17.9497 21.0403 22.3431 25.3428 27.8254 25.3428C33.3057 25.3428 37.7011 21.0403 37.7011 15.6714C37.7011 10.3025 33.3057 6 27.8254 6C22.3431 6 17.9497 10.3025 17.9497 15.6714Z" fill="url(#paint4_linear_4310_37417)"/>
<path d="M42.75 36.2938C42.75 31.3238 35.8748 30.0804 27.8252 30.0804C19.7319 30.0804 12.9004 31.3667 12.9004 36.3405C12.9004 41.3105 19.7756 42.5539 27.8252 42.5539C35.9185 42.5539 42.75 41.2677 42.75 36.2938Z" fill="url(#paint5_linear_4310_37417)"/>
</g>
<path opacity="0.04" d="M27.8254 24.8428C22.6093 24.8428 18.4497 20.7543 18.4497 15.6714C18.4497 10.5884 22.6093 6.5 27.8254 6.5C33.0395 6.5 37.2011 10.5885 37.2011 15.6714C37.2011 20.7542 33.0395 24.8428 27.8254 24.8428ZM27.8252 30.5804C31.8391 30.5804 35.5012 30.8923 38.1444 31.7964C39.4631 32.2475 40.4917 32.8341 41.1865 33.5696C41.8701 34.2932 42.25 35.1803 42.25 36.2938C42.25 37.4095 41.872 38.3006 41.191 39.0288C40.4991 39.7686 39.4743 40.3604 38.1588 40.8167C35.5217 41.7314 31.8601 42.0539 27.8252 42.0539C23.8114 42.0539 20.1492 41.742 17.506 40.8379C16.1873 40.3868 15.1587 39.8002 14.4639 39.0647C13.7804 38.3411 13.4004 37.454 13.4004 36.3405C13.4004 35.2249 13.7785 34.3337 14.4595 33.6055C15.1514 32.8657 16.1761 32.274 17.4917 31.8176C20.1288 30.9029 23.7903 30.5804 27.8252 30.5804Z" stroke="black"/>
<defs>
<linearGradient id="paint0_linear_4310_37417" x1="5.25" y1="8.79651" x2="32.5601" y2="31.0982" gradientUnits="userSpaceOnUse">
<stop stop-color="#C684FF"/>
<stop offset="1" stop-color="#8E33FF"/>
</linearGradient>
<linearGradient id="paint1_linear_4310_37417" x1="5.25" y1="8.79651" x2="32.5601" y2="31.0982" gradientUnits="userSpaceOnUse">
<stop stop-color="#C684FF"/>
<stop offset="1" stop-color="#8E33FF"/>
</linearGradient>
<linearGradient id="paint2_linear_4310_37417" x1="12.9004" y1="6" x2="48.7166" y2="35.2473" gradientUnits="userSpaceOnUse">
<stop stop-color="#C684FF"/>
<stop offset="1" stop-color="#8E33FF"/>
</linearGradient>
<linearGradient id="paint3_linear_4310_37417" x1="12.9004" y1="6" x2="48.7166" y2="35.2473" gradientUnits="userSpaceOnUse">
<stop stop-color="#C684FF"/>
<stop offset="1" stop-color="#8E33FF"/>
</linearGradient>
<linearGradient id="paint4_linear_4310_37417" x1="12.9004" y1="6" x2="48.7166" y2="35.2473" gradientUnits="userSpaceOnUse">
<stop stop-color="#8E33FF"/>
<stop offset="1" stop-color="#5119B7"/>
</linearGradient>
<linearGradient id="paint5_linear_4310_37417" x1="12.9004" y1="6" x2="48.7166" y2="35.2473" gradientUnits="userSpaceOnUse">
<stop stop-color="#8E33FF"/>
<stop offset="1" stop-color="#5119B7"/>
</linearGradient>
</defs>
</svg>
