<svg width="48" height="48" viewBox="0 0 48 48" fill="none" xmlns="http://www.w3.org/2000/svg">
<path opacity="0.48" d="M29.5688 7.88754C27.878 6.90895 25.8666 6.65002 23.983 7.15471L10.1072 10.8727C6.17295 11.9269 3.85057 15.9515 4.9006 19.8702L7.87382 30.9664C8.92385 34.8852 12.9614 37.2056 16.8816 36.1552L30.7575 32.4372C34.6776 31.3868 37.0155 27.3581 35.9654 23.4393L32.9922 12.3431C32.4879 10.461 31.2603 8.86295 29.5688 7.88754Z" fill="url(#paint0_linear_4310_37464)"/>
<path d="M42.5961 15.2057C41.0558 13.6622 38.9621 12.802 36.7856 12.802H20.7516C16.2055 12.802 12.5391 16.4701 12.5391 20.9983V33.8204C12.5391 38.3486 16.2217 42.0167 20.7516 42.0167H36.7856C41.3155 42.0167 44.9998 38.3486 44.9998 33.8204V20.9983C44.9998 18.8235 44.138 16.746 42.5961 15.2057Z" fill="url(#paint1_linear_4310_37464)"/>
<path opacity="0.48" d="M42.5961 15.2057C41.0558 13.6622 38.9621 12.802 36.7856 12.802H20.7516C16.2055 12.802 12.5391 16.4701 12.5391 20.9983V33.8204C12.5391 38.3486 16.2217 42.0167 20.7516 42.0167H36.7856C41.3155 42.0167 44.9998 38.3486 44.9998 33.8204V20.9983C44.9998 18.8235 44.138 16.746 42.5961 15.2057Z" fill="url(#paint2_linear_4310_37464)"/>
<g opacity="0.04">
<mask id="path-4-inside-1_4310_37464" fill="white">
<path d="M42.5961 15.2057C41.0558 13.6622 38.9621 12.802 36.7856 12.802H20.7516C16.2055 12.802 12.5391 16.4701 12.5391 20.9983V33.8204C12.5391 38.3486 16.2217 42.0167 20.7516 42.0167H36.7856C41.3155 42.0167 44.9998 38.3486 44.9998 33.8204V20.9983C44.9998 18.8235 44.138 16.746 42.5961 15.2057Z"/>
</mask>
<path d="M43.304 14.4994C41.5745 12.7662 39.2254 11.802 36.7856 11.802V13.802C38.6989 13.802 40.5372 14.5582 41.8883 15.9121L43.304 14.4994ZM36.7856 11.802H20.7516V13.802H36.7856V11.802ZM20.7516 11.802C15.6544 11.802 11.5391 15.9166 11.5391 20.9983H13.5391C13.5391 17.0235 16.7566 13.802 20.7516 13.802V11.802ZM11.5391 20.9983V33.8204H13.5391V20.9983H11.5391ZM11.5391 33.8204C11.5391 38.9034 15.6719 43.0167 20.7516 43.0167V41.0167C16.7716 41.0167 13.5391 37.7939 13.5391 33.8204H11.5391ZM20.7516 43.0167H36.7856V41.0167H20.7516V43.0167ZM36.7856 43.0167C41.8651 43.0167 45.9998 38.9036 45.9998 33.8204H43.9998C43.9998 37.7936 40.766 41.0167 36.7856 41.0167V43.0167ZM45.9998 33.8204V20.9983H43.9998V33.8204H45.9998ZM45.9998 20.9983C45.9998 18.5576 45.0321 16.2257 43.3028 14.4982L41.8894 15.9132C43.2439 17.2663 43.9998 19.0894 43.9998 20.9983H45.9998Z" fill="black" mask="url(#path-4-inside-1_4310_37464)"/>
</g>
<path d="M39.4979 23.2868L39.3681 23.4167L32.0466 29.2758C31.1393 29.99 30.0178 30.3795 28.867 30.3795C27.7131 30.3795 26.611 29.99 25.7021 29.2758L18.3173 23.514L18.1047 23.3031C17.733 22.8161 17.7817 22.1182 18.2199 21.68C18.6403 21.2418 19.3382 21.1931 19.8429 21.5664L27.1466 27.4093C28.1026 28.19 29.4513 28.19 30.3927 27.4093L37.711 21.5664C37.9561 21.3392 38.2807 21.2239 38.6215 21.2418C38.9445 21.2743 39.2545 21.422 39.4801 21.6638C39.8858 22.1345 39.8858 22.8161 39.4979 23.2868Z" fill="url(#paint3_linear_4310_37464)"/>
<defs>
<linearGradient id="paint0_linear_4310_37464" x1="3" y1="12.7771" x2="35.6283" y2="33.9765" gradientUnits="userSpaceOnUse">
<stop stop-color="#FFAC82"/>
<stop offset="1" stop-color="#FF5630"/>
</linearGradient>
<linearGradient id="paint1_linear_4310_37464" x1="12.5391" y1="12.802" x2="41.5924" y2="45.0834" gradientUnits="userSpaceOnUse">
<stop stop-color="#FFAC82"/>
<stop offset="1" stop-color="#FF5630"/>
</linearGradient>
<linearGradient id="paint2_linear_4310_37464" x1="12.5391" y1="12.802" x2="41.5924" y2="45.0834" gradientUnits="userSpaceOnUse">
<stop stop-color="#FF5630"/>
<stop offset="1" stop-color="#B71D18"/>
</linearGradient>
<linearGradient id="paint3_linear_4310_37464" x1="18.1273" y1="26.7486" x2="28.2294" y2="37.3089" gradientUnits="userSpaceOnUse">
<stop stop-color="white" stop-opacity="0.16"/>
<stop offset="1" stop-color="white" stop-opacity="0.64"/>
</linearGradient>
</defs>
</svg>
