<svg width="48" height="48" viewBox="0 0 48 48" fill="none" xmlns="http://www.w3.org/2000/svg">
<path opacity="0.48" d="M32.5588 11.4594C31.9556 10.7509 31.3524 10.4275 30.4325 10.4275H10.0663C9.58374 10.4275 9.19165 10.0578 9.1464 9.56342L8.85988 6.11343C8.81464 5.58977 8.43762 5.16006 7.92489 5.06611L4.3282 4.51319C3.7099 4.41924 3.12176 4.83662 3.0162 5.46656C2.91064 6.08262 3.33289 6.68329 3.93611 6.7911C5.27776 7.02704 6.29148 8.13818 6.40367 9.49579L7.60066 23.981C7.76654 26.014 9.42539 27.5834 11.4311 27.5834H27.8839C29.7991 27.5834 31.4278 26.1526 31.6992 24.2105L33.1319 14.1069C33.2676 13.1844 33.162 12.1679 32.5588 11.4594Z" fill="url(#paint0_linear_4310_37440)"/>
<path d="M15.1702 17.0416C14.1699 17.0416 13.514 17.3933 12.858 18.1637C12.2021 18.9341 12.0873 20.0394 12.2349 21.0426L13.7927 32.0292C14.0879 34.1411 15.8589 35.697 17.9415 35.697H35.8322C38.0132 35.697 39.8171 33.9904 39.9975 31.7796L41.5061 13.5229L43.9823 13.0874C44.6382 12.9702 45.0974 12.317 44.9826 11.6471C44.8678 10.9621 44.2283 10.5082 43.5559 10.6104L39.6449 11.2117C39.0873 11.3138 38.6774 11.7811 38.6282 12.3505L38.3166 16.102C38.2674 16.6396 37.8411 17.0416 37.3163 17.0416H15.1702Z" fill="url(#paint1_linear_4310_37440)"/>
<path d="M36.0952 38.3443C37.4726 38.3443 38.5877 39.4831 38.5877 40.8899C38.5877 42.28 37.4726 43.4188 36.0952 43.4188C34.7341 43.4188 33.619 42.28 33.619 40.8899C33.619 39.4831 34.7341 38.3443 36.0952 38.3443Z" fill="url(#paint2_linear_4310_37440)"/>
<path d="M17.6471 38.3443C19.0245 38.3443 20.1396 39.4831 20.1396 40.8899C20.1396 42.28 19.0245 43.4188 17.6471 43.4188C16.286 43.4188 15.1709 42.28 15.1709 40.8899C15.1709 39.4831 16.286 38.3443 17.6471 38.3443Z" fill="url(#paint3_linear_4310_37440)"/>
<g opacity="0.48">
<path d="M15.1702 17.0416C14.1699 17.0416 13.514 17.3933 12.858 18.1637C12.2021 18.9341 12.0873 20.0394 12.2349 21.0426L13.7927 32.0292C14.0879 34.1411 15.8589 35.697 17.9415 35.697H35.8322C38.0132 35.697 39.8171 33.9904 39.9975 31.7796L41.5061 13.5229L43.9823 13.0874C44.6382 12.9702 45.0974 12.317 44.9826 11.6471C44.8678 10.9621 44.2283 10.5082 43.5559 10.6104L39.6449 11.2117C39.0873 11.3138 38.6774 11.7811 38.6282 12.3505L38.3166 16.102C38.2674 16.6396 37.8411 17.0416 37.3163 17.0416H15.1702Z" fill="url(#paint4_linear_4310_37440)"/>
<path d="M36.0952 38.3443C37.4726 38.3443 38.5877 39.4831 38.5877 40.8899C38.5877 42.28 37.4726 43.4188 36.0952 43.4188C34.7341 43.4188 33.619 42.28 33.619 40.8899C33.619 39.4831 34.7341 38.3443 36.0952 38.3443Z" fill="url(#paint5_linear_4310_37440)"/>
<path d="M17.6471 38.3443C19.0245 38.3443 20.1396 39.4831 20.1396 40.8899C20.1396 42.28 19.0245 43.4188 17.6471 43.4188C16.286 43.4188 15.1709 42.28 15.1709 40.8899C15.1709 39.4831 16.286 38.3443 17.6471 38.3443Z" fill="url(#paint6_linear_4310_37440)"/>
</g>
<path opacity="0.04" d="M12.7299 20.9724L12.7296 20.9698C12.5916 20.032 12.717 19.1005 13.2387 18.4878C13.5381 18.1362 13.815 17.9067 14.1073 17.7616C14.3966 17.6179 14.7317 17.5416 15.1702 17.5416H37.3163C38.1129 17.5416 38.743 16.9291 38.8145 16.1476L38.8149 16.1434L39.1263 12.3935C39.1264 12.3932 39.1264 12.3929 39.1264 12.3926C39.1572 12.0405 39.4056 11.7667 39.7289 11.7046L43.631 11.1047C43.6312 11.1047 43.6313 11.1047 43.6314 11.1047C44.0354 11.0435 44.4202 11.3162 44.4895 11.7297L44.4898 11.7315C44.5586 12.1335 44.277 12.5265 43.8949 12.5951C43.8947 12.5951 43.8945 12.5952 43.8943 12.5952L41.4195 13.0304L41.0396 13.0972L41.0078 13.4817L39.4992 31.7385L39.4991 31.739C39.3391 33.7001 37.743 35.197 35.8322 35.197H17.9415C16.1145 35.197 14.5494 33.8311 14.2879 31.96L14.2878 31.959L12.7299 20.9724ZM36.0952 38.8443C37.1866 38.8443 38.0877 39.7493 38.0877 40.8899C38.0877 42.0117 37.1887 42.9188 36.0952 42.9188C35.0201 42.9188 34.119 42.0138 34.119 40.8899C34.119 39.7471 35.0222 38.8443 36.0952 38.8443ZM17.6471 38.8443C18.7385 38.8443 19.6396 39.7493 19.6396 40.8899C19.6396 42.0117 18.7406 42.9188 17.6471 42.9188C16.572 42.9188 15.6709 42.0138 15.6709 40.8899C15.6709 39.7471 16.5741 38.8443 17.6471 38.8443Z" stroke="black"/>
<path fill-rule="evenodd" clip-rule="evenodd" d="M20.5637 25.748H25.1061C25.7948 25.748 26.3359 25.1786 26.3359 24.4919C26.3359 23.7885 25.7948 23.2358 25.1061 23.2358H20.5637C19.8749 23.2358 19.3338 23.7885 19.3338 24.4919C19.3338 25.1786 19.8749 25.748 20.5637 25.748Z" fill="url(#paint7_linear_4310_37440)"/>
<defs>
<linearGradient id="paint0_linear_4310_37440" x1="3" y1="4.5" x2="25.2774" y2="33.6304" gradientUnits="userSpaceOnUse">
<stop stop-color="#FFD666"/>
<stop offset="1" stop-color="#FFAB00"/>
</linearGradient>
<linearGradient id="paint1_linear_4310_37440" x1="12.1777" y1="10.5961" x2="45.0005" y2="43.4185" gradientUnits="userSpaceOnUse">
<stop stop-color="#FFD666"/>
<stop offset="1" stop-color="#FFAB00"/>
</linearGradient>
<linearGradient id="paint2_linear_4310_37440" x1="12.1777" y1="10.5961" x2="45.0005" y2="43.4185" gradientUnits="userSpaceOnUse">
<stop stop-color="#FFD666"/>
<stop offset="1" stop-color="#FFAB00"/>
</linearGradient>
<linearGradient id="paint3_linear_4310_37440" x1="12.1777" y1="10.5961" x2="45.0005" y2="43.4185" gradientUnits="userSpaceOnUse">
<stop stop-color="#FFD666"/>
<stop offset="1" stop-color="#FFAB00"/>
</linearGradient>
<linearGradient id="paint4_linear_4310_37440" x1="12.1777" y1="10.5961" x2="45.0005" y2="43.4185" gradientUnits="userSpaceOnUse">
<stop stop-color="#FFAB00"/>
<stop offset="1" stop-color="#B76E00"/>
</linearGradient>
<linearGradient id="paint5_linear_4310_37440" x1="12.1777" y1="10.5961" x2="45.0005" y2="43.4185" gradientUnits="userSpaceOnUse">
<stop stop-color="#FFAB00"/>
<stop offset="1" stop-color="#B76E00"/>
</linearGradient>
<linearGradient id="paint6_linear_4310_37440" x1="12.1777" y1="10.5961" x2="45.0005" y2="43.4185" gradientUnits="userSpaceOnUse">
<stop stop-color="#FFAB00"/>
<stop offset="1" stop-color="#B76E00"/>
</linearGradient>
<linearGradient id="paint7_linear_4310_37440" x1="26.2491" y1="24.75" x2="23.5212" y2="28.0624" gradientUnits="userSpaceOnUse">
<stop stop-color="white" stop-opacity="0.16"/>
<stop offset="1" stop-color="white" stop-opacity="0.64"/>
</linearGradient>
</defs>
</svg>
