<svg width="48" height="48" viewBox="0 0 48 48" fill="none" xmlns="http://www.w3.org/2000/svg">
<path opacity="0.48" d="M24.684 16.8311L24.6846 16.8283L24.7658 16.5251C25.5836 12.8666 23.3614 9.21088 19.7278 8.23727C16.0943 7.26366 12.3419 9.31848 11.2209 12.8958C11.1759 12.9922 11.1482 13.0958 11.1389 13.2018L13.1346 13.7365C13.1796 13.6401 13.2074 13.5365 13.2166 13.4305C13.9132 10.8307 16.5928 9.28983 19.2016 9.98884C21.8103 10.6879 23.3604 13.3621 22.6638 15.9619C22.6371 16.0669 22.6293 16.1759 22.6409 16.2837L11.0327 13.1733C9.29516 12.7077 7.13051 13.3571 5.76512 16.2959L2.46015 24.4123C-0.0549426 30.3477 2.70739 32.7402 6.85341 33.8511L18.0932 36.8628C22.2272 37.9705 25.9049 36.5634 26.6053 30.8819L27.8133 22.2037C27.9813 19.0365 26.5143 17.3216 24.8008 16.8624L24.684 16.8311Z" fill="url(#paint0_linear_4310_37393)"/>
<path fill-rule="evenodd" clip-rule="evenodd" d="M34.481 12.9038C34.4017 12.5739 34.3415 12.3313 34.3303 12.2951L34.2242 11.8991C32.8745 7.59235 28.357 5.11849 23.9824 6.29065C19.6079 7.4628 16.9325 11.864 17.9171 16.2686C17.9212 16.3159 18.0332 16.7541 18.1754 17.293C16.2599 17.9952 14.6566 19.9617 14.979 23.5879L16.4189 34.0398C17.3695 41.7422 21.6898 42.5739 26.6813 41.2364L40.2131 37.6106C45.1902 36.277 48.1776 32.596 45.4878 26.2508L41.5233 16.4754C39.792 13.0721 37.2302 12.1671 35.1672 12.7199L34.481 12.9038ZM31.9726 13.5759L20.6031 16.6223C20.4591 16.0933 20.3396 15.6673 20.3198 15.6248C19.4811 12.4948 21.3473 9.27527 24.4881 8.4337C27.6288 7.59213 30.8548 9.44726 31.6935 12.5772L31.719 12.6689C31.7635 12.8288 31.8592 13.1727 31.9726 13.5759Z" fill="url(#paint1_linear_4310_37393)"/>
<path opacity="0.48" fill-rule="evenodd" clip-rule="evenodd" d="M34.481 12.9038C34.4017 12.5739 34.3415 12.3313 34.3303 12.2951L34.2242 11.8991C32.8745 7.59235 28.357 5.11849 23.9824 6.29065C19.6079 7.4628 16.9325 11.864 17.9171 16.2686C17.9212 16.3159 18.0332 16.7541 18.1754 17.293C16.2599 17.9952 14.6566 19.9617 14.979 23.5879L16.4189 34.0398C17.3695 41.7422 21.6898 42.5739 26.6813 41.2364L40.2131 37.6106C45.1902 36.277 48.1776 32.596 45.4878 26.2508L41.5233 16.4754C39.792 13.0721 37.2301 12.1671 35.1672 12.7199L34.481 12.9038ZM31.9726 13.5759L20.6031 16.6223C20.4591 16.0933 20.3396 15.6673 20.3198 15.6248C19.4811 12.4948 21.3473 9.27527 24.4881 8.4337C27.6288 7.59213 30.8548 9.44726 31.6935 12.5772L31.719 12.6689C31.7635 12.8288 31.8592 13.1727 31.9726 13.5759Z" fill="url(#paint2_linear_4310_37393)"/>
<path opacity="0.04" d="M33.9949 13.0207L34.1148 13.5195L34.6104 13.3867L35.2966 13.2028C37.0783 12.7254 39.4191 13.457 41.0681 16.6833L45.0245 26.4387L45.0244 26.4387L45.0275 26.4459C46.3333 29.5263 46.2241 31.8639 45.2873 33.5693C44.3433 35.2879 42.4955 36.4814 40.0837 37.1276L26.5519 40.7535C24.0928 41.4124 21.9253 41.4981 20.2759 40.5901C18.6523 39.6962 17.3807 37.7514 16.9151 33.9785L16.9152 33.9785L16.9142 33.9715L15.476 23.5318C15.3245 21.8058 15.6335 20.5192 16.1703 19.5951C16.7077 18.6702 17.4916 18.0762 18.3475 17.7624L18.775 17.6057L18.6589 17.1654C18.588 16.8967 18.5249 16.6542 18.4792 16.4737C18.4563 16.3832 18.4381 16.31 18.4257 16.2576C18.4183 16.2263 18.4147 16.2095 18.4132 16.2029L18.4123 16.192L18.405 16.1595C17.4793 12.0179 19.9947 7.8768 24.1118 6.77361C28.2256 5.67132 32.4711 7.99527 33.7439 12.0388L33.8473 12.4245L33.8499 12.4343L33.8529 12.444C33.8529 12.4439 33.8661 12.494 33.8948 12.6096C33.9208 12.7145 33.9554 12.8564 33.9949 13.0207ZM32.102 14.0588L32.5909 13.9278L32.4539 13.4405C32.3407 13.0381 32.2452 12.6947 32.2007 12.5349L32.2007 12.5347L32.1765 12.4478C32.1763 12.4471 32.1761 12.4463 32.1758 12.4455C31.2643 9.04864 27.7638 7.03833 24.3587 7.95074C20.9527 8.86336 18.9262 12.3559 19.8368 15.7542L19.8481 15.7965L19.8574 15.8163C19.8611 15.8278 19.8663 15.8448 19.8732 15.8678C19.8884 15.9183 19.9088 15.9892 19.9338 16.0773C19.9835 16.2529 20.0489 16.4898 20.1207 16.7536L20.2515 17.2342L20.7325 17.1053L32.102 14.0588ZM19.8528 15.8027C19.8528 15.8026 19.8532 15.8036 19.8539 15.8059C19.8533 15.804 19.8529 15.8029 19.8528 15.8027Z" stroke="black"/>
<path d="M24.3342 24.6455C23.5374 24.859 22.7134 24.3672 22.4937 23.5472C22.274 22.7271 22.7417 21.8893 23.5385 21.6758C24.3352 21.4623 25.1592 21.954 25.3789 22.7741C25.5987 23.5941 25.1309 24.432 24.3342 24.6455Z" fill="url(#paint3_linear_4310_37393)"/>
<path d="M31.9429 21.0155C32.1626 21.8355 32.9866 22.3272 33.7833 22.1138C34.5801 21.9003 35.0478 21.0624 34.8281 20.2424C34.6084 19.4223 33.7844 18.9306 32.9876 19.1441C32.1909 19.3576 31.7231 20.1954 31.9429 21.0155Z" fill="url(#paint4_linear_4310_37393)"/>
<defs>
<linearGradient id="paint0_linear_4310_37393" x1="1.5" y1="7.99585" x2="30.5583" y2="34.1802" gradientUnits="userSpaceOnUse">
<stop stop-color="#5BE49B"/>
<stop offset="1" stop-color="#00A76F"/>
</linearGradient>
<linearGradient id="paint1_linear_4310_37393" x1="14.9375" y1="6" x2="50.4202" y2="37.3174" gradientUnits="userSpaceOnUse">
<stop stop-color="#5BE49B"/>
<stop offset="1" stop-color="#00A76F"/>
</linearGradient>
<linearGradient id="paint2_linear_4310_37393" x1="14.9375" y1="6" x2="50.4202" y2="37.3174" gradientUnits="userSpaceOnUse">
<stop stop-color="#00A76F"/>
<stop offset="1" stop-color="#007867"/>
</linearGradient>
<linearGradient id="paint3_linear_4310_37393" x1="22.5937" y1="22.4702" x2="28.7874" y2="28.4644" gradientUnits="userSpaceOnUse">
<stop stop-color="white" stop-opacity="0.16"/>
<stop offset="1" stop-color="white" stop-opacity="0.64"/>
</linearGradient>
<linearGradient id="paint4_linear_4310_37393" x1="22.5937" y1="22.4702" x2="28.7874" y2="28.4644" gradientUnits="userSpaceOnUse">
<stop stop-color="white" stop-opacity="0.16"/>
<stop offset="1" stop-color="white" stop-opacity="0.64"/>
</linearGradient>
</defs>
</svg>
