<svg width="40" height="40" viewBox="0 0 40 40" fill="none" xmlns="http://www.w3.org/2000/svg">
<path opacity="0.48" d="M14.4147 36.5232L14.1958 36.8839C14.1958 36.8839 4.45874 37.3851 4.45874 30.9414C4.45874 24.3546 12.987 21.4697 15.6277 20.56C16.2045 20.3613 17.233 20.0717 18.4881 19.6716C18.6755 20.069 18.8579 20.4685 19.0362 20.8698C15.7569 22.0439 8.7545 24.9728 8.7545 30.9414C8.7545 34.514 11.7474 35.9512 14.4147 36.5232ZM24.2514 36.0136L25.6029 29.8916C25.9483 28.1637 26.7975 26.5767 28.0435 25.3306L30.5785 22.7956C29.4958 22.6972 28.379 23.0621 27.5501 23.8909L23.1749 28.2661C21.9289 29.5121 21.0797 31.0991 20.7344 32.827L19.9235 36.8839C19.9235 36.8839 24.1615 36.0345 24.2514 36.0136Z" fill="#1C252E"/>
<path d="M36.7925 20.0142C35.8053 19.027 34.4928 18.4834 33.0968 18.4834C31.7008 18.4834 30.3883 19.027 29.4011 20.0142L22.1621 27.2532C20.7114 28.704 19.7321 30.5342 19.3299 32.546L18.519 36.6029C18.4252 37.0724 18.5721 37.5576 18.9107 37.8961C19.1819 38.1673 19.5472 38.3155 19.9232 38.3155C20.0166 38.3155 20.1105 38.3064 20.2039 38.2877L24.2608 37.4768C26.2726 37.0747 28.1028 36.0954 29.5536 34.6446L36.7925 27.4056C37.7797 26.4185 38.3234 25.106 38.3234 23.7099C38.3234 22.3139 37.7797 21.0014 36.7925 20.0142ZM34.7674 25.3805L27.5284 32.6195C26.4789 33.6691 25.1549 34.3776 23.6995 34.6685L21.7483 35.0584L22.1383 33.1072C22.4292 31.6518 23.1376 30.3278 24.1872 29.2783L31.4262 22.0392C31.8724 21.593 32.4658 21.3472 33.0968 21.3472C33.7279 21.3472 34.3213 21.593 34.7675 22.0393C35.2137 22.4855 35.4595 23.0789 35.4595 23.7099C35.4595 24.341 35.2138 24.9343 34.7674 25.3805Z" fill="#1C252E"/>
<path d="M17.121 21.5835C16.703 21.7149 16.2793 21.8501 16.0318 21.9353C13.5237 22.7989 5.89126 25.427 5.89126 30.9412C5.89126 32.0073 6.236 32.8539 6.94523 33.5293C8.80837 35.3039 12.7605 35.5201 14.1247 35.4535C14.9153 35.4142 15.586 36.0231 15.6255 36.8121C15.665 37.6011 15.0591 38.2731 14.27 38.3137C14.2283 38.3159 14.0285 38.3251 13.7101 38.3251C12.1243 38.3251 7.59367 38.0952 4.97684 35.6095C3.68339 34.3809 3.02743 32.8102 3.02743 30.9412C3.02743 29.1343 3.56805 27.4329 4.63411 25.8845C5.48539 24.6482 6.68211 23.5015 8.19136 22.4761C10.7871 20.7124 13.7622 19.6879 15.1619 19.206C15.446 19.1081 15.8241 18.9893 16.2618 18.8516C18.2172 18.2366 21.49 17.2074 24.2972 15.6443C27.3813 13.9269 28.9451 12.1031 28.9451 10.2234C28.9451 8.07825 27.9287 6.72343 27.076 5.96466C26.0916 5.0884 24.7456 4.52229 23.6471 4.52229C22.8562 4.52229 22.2152 3.88122 22.2152 3.09037C22.2152 2.29952 22.8562 1.65845 23.6471 1.65845C25.4617 1.65845 27.4553 2.46841 28.9799 3.82516C30.8042 5.44867 31.809 7.72091 31.809 10.2233C31.809 16.9644 21.5162 20.2012 17.121 21.5835Z" fill="#1C252E"/>
<path d="M9.54231 10.5363C6.52675 10.5363 4.6838 9.25586 3.66879 8.18163C2.39653 6.83505 1.66675 4.97936 1.66675 3.09037C1.66675 2.29952 2.30782 1.65845 3.09867 1.65845C3.88952 1.65845 4.53059 2.29952 4.53059 3.09037C4.53059 5.29724 6.0989 7.67251 9.54231 7.67251C12.0163 7.67251 13.5782 6.44421 15.3867 5.02196C15.9472 4.58114 16.5268 4.12536 17.1487 3.69707C17.8 3.24859 18.6916 3.41284 19.1402 4.06414C19.5887 4.71545 19.4244 5.60704 18.7731 6.05559C18.2258 6.43254 17.7066 6.84078 17.157 7.27308C15.2121 8.80265 13.0076 10.5363 9.54231 10.5363Z" fill="#1C252E"/>
</svg>
