<svg width="40" height="40" viewBox="0 0 40 40" fill="none" xmlns="http://www.w3.org/2000/svg">
<path opacity="0.48" d="M7.53902 22.8335V11.0828C7.53902 7.12928 10.7362 3.92432 14.6801 3.92432H10.332C6.37679 3.92432 3.17053 7.13057 3.17053 11.0858V22.8306C3.17053 26.7857 6.37679 29.992 10.332 29.992H14.6801C10.7362 29.992 7.53902 26.7871 7.53902 22.8335Z" fill="white"/>
<path d="M26.875 37.1534H13.125C11.2266 37.083 11.228 34.3586 13.125 34.2888H26.875C28.7733 34.3592 28.7719 37.0836 26.875 37.1534ZM29.7395 31.4242H10.2589C5.52114 31.4242 1.66663 27.5698 1.66663 22.832V11.0857C1.66663 6.3471 5.52178 2.49194 10.2604 2.49194H29.7395C34.4781 2.49194 38.3333 6.3471 38.3333 11.0857V22.8305C38.3333 27.5691 34.4781 31.4242 29.7395 31.4242ZM10.2604 5.35653C7.10131 5.35653 4.53121 7.92663 4.53121 11.0857V22.832C4.53121 25.9902 7.10067 28.5597 10.2589 28.5597H29.7395C32.8986 28.5597 35.4687 25.9895 35.4687 22.8305V11.0857C35.4687 7.92663 32.8986 5.35653 29.7395 5.35653H10.2604Z" fill="white"/>
<path d="M18.4254 24.1914C18.2943 24.1914 18.1612 24.1733 18.0289 24.1353C17.2687 23.9167 16.8296 23.1233 17.0482 22.363L20.3424 10.9047C20.5611 10.1445 21.3546 9.70571 22.1148 9.92392C22.875 10.1426 23.3141 10.936 23.0955 11.6962L19.8013 23.1546C19.6206 23.7825 19.0477 24.1914 18.4254 24.1914ZM27.0185 22.7588C26.6481 22.7588 26.2779 22.616 25.9976 22.3311C25.4428 21.7673 25.45 20.8605 26.0138 20.3056L28.818 17.5459C29.0966 17.245 29.0967 16.8498 28.8157 16.5488L26.0069 13.7467C25.4469 13.188 25.4459 12.2811 26.0046 11.7212C26.5633 11.1611 27.4702 11.1601 28.0301 11.7187L30.8386 14.5206C32.229 15.8506 32.229 18.2467 30.8383 19.5768C30.8361 19.579 30.8339 19.5812 30.8317 19.5834L28.0232 22.3474C27.7442 22.6218 27.3812 22.7588 27.0185 22.7588ZM13.1251 22.7588C12.7624 22.7588 12.3995 22.6218 12.1205 22.3473L9.31201 19.5833C9.30979 19.5811 9.30757 19.5789 9.30542 19.5767C7.9146 18.2463 7.91467 15.8505 9.30542 14.5203L12.1136 11.7187C12.6736 11.1601 13.5805 11.1612 14.1391 11.7212C14.6978 12.2811 14.6968 13.188 14.1368 13.7467L11.3282 16.5486C11.0472 16.8493 11.0467 17.2444 11.3256 17.5459L14.1298 20.3056C14.6936 20.8605 14.7009 21.7673 14.146 22.3311C13.8657 22.616 13.4954 22.7588 13.1251 22.7588Z" fill="white"/>
</svg>
