<svg width="40" height="40" viewBox="0 0 40 40" fill="none" xmlns="http://www.w3.org/2000/svg">
<path opacity="0.48" d="M28.6234 31.9435C27.3771 30.6972 26.5277 29.1098 26.1822 27.3814L25.11 21.54C24.975 21.5063 20.6445 20.6362 20.6445 20.6362L21.4556 24.6942C21.8011 26.4225 22.6505 28.01 23.8968 29.2563L30.4216 35.781L31.4412 34.7614L28.6234 31.9435Z" fill="white"/>
<path d="M14.3424 4.52303H10.014C9.4227 2.85599 7.83071 1.65845 5.9635 1.65845C3.5942 1.65845 1.66663 3.58603 1.66663 5.95532C1.66663 7.82253 2.86416 9.41452 4.53121 10.0058V14.2626C4.53121 15.0537 5.17245 15.6949 5.9635 15.6949C6.75456 15.6949 7.39579 15.0537 7.39579 14.2626V10.0058C8.61453 9.57358 9.58176 8.60642 10.014 7.38761H14.3424C15.1335 7.38761 15.7747 6.74638 15.7747 5.95532C15.7747 5.16427 15.1335 4.52303 14.3424 4.52303ZM5.9635 7.38761C5.17374 7.38761 4.53121 6.74509 4.53121 5.95532C4.53121 5.16556 5.17374 4.52303 5.9635 4.52303C6.75327 4.52303 7.39579 5.16556 7.39579 5.95532C7.39579 6.74509 6.75327 7.38761 5.9635 7.38761ZM25.5859 7.38761H29.9859C30.4182 8.60635 31.3853 9.57358 32.6041 10.0058V14.2626C32.6041 15.0537 33.2454 15.6949 34.0364 15.6949C34.8275 15.6949 35.4687 15.0537 35.4687 14.2626V10.0058C37.1357 9.41459 38.3333 7.82253 38.3333 5.95532C38.3333 3.58603 36.4057 1.65845 34.0364 1.65845C32.1692 1.65845 30.5772 2.85599 29.9859 4.52303H25.5859C24.7948 4.52303 24.1536 5.16427 24.1536 5.95532C24.1536 6.74638 24.7948 7.38761 25.5859 7.38761ZM34.0364 4.52303C34.8262 4.52303 35.4687 5.16556 35.4687 5.95532C35.4687 6.74509 34.8262 7.38761 34.0364 7.38761C33.2467 7.38761 32.6041 6.74509 32.6041 5.95532C32.6041 5.16556 33.2467 4.52303 34.0364 4.52303ZM14.3424 32.5959H10.014C9.58176 31.3772 8.6146 30.41 7.39579 29.9777V25.6493C7.39579 24.8583 6.75456 24.217 5.9635 24.217C5.17245 24.217 4.53121 24.8583 4.53121 25.6493V29.9777C2.86416 30.569 1.66663 32.161 1.66663 34.0282C1.66663 36.3975 3.5942 38.3251 5.9635 38.3251C7.83071 38.3251 9.4227 37.1276 10.014 35.4605H14.3424C15.1335 35.4605 15.7747 34.8193 15.7747 34.0282C15.7747 33.2372 15.1335 32.5959 14.3424 32.5959ZM5.9635 35.4605C5.17374 35.4605 4.53121 34.818 4.53121 34.0282C4.53121 33.2385 5.17374 32.5959 5.9635 32.5959C6.75327 32.5959 7.39579 33.2385 7.39579 34.0282C7.39579 34.818 6.75327 35.4605 5.9635 35.4605Z" fill="white"/>
<path d="M30.2773 22.8759C28.8262 21.4247 26.9955 20.4452 24.9832 20.0429L20.9252 19.2318C20.4557 19.1378 19.9703 19.2849 19.6317 19.6235C19.2931 19.9622 19.1461 20.4475 19.2399 20.9171L20.0511 24.9751C20.4533 26.9874 21.4329 28.8181 22.884 30.2693L29.4087 36.7939C30.3961 37.7813 31.709 38.3252 33.1054 38.3252C34.5018 38.3252 35.8146 37.7813 36.8021 36.7939C37.7895 35.8065 38.3333 34.4937 38.3333 33.0973C38.3333 31.7009 37.7895 30.3881 36.8021 29.4006L30.2773 22.8759ZM34.7764 34.7684C34.3301 35.2147 33.7366 35.4606 33.1054 35.4606C32.4742 35.4606 31.8806 35.2147 31.4343 34.7684L24.9096 28.2437C23.8598 27.1938 23.1511 25.8695 22.8601 24.4137L22.4701 22.462L24.4218 22.8521C25.8776 23.143 27.202 23.8517 28.2518 24.9015L34.7765 31.4263C35.2228 31.8726 35.4687 32.4661 35.4687 33.0973C35.4687 33.7285 35.2228 34.3221 34.7764 34.7684Z" fill="white"/>
<path d="M21.7187 5.9554C21.7187 6.94419 20.9171 7.74577 19.9283 7.74577C18.9395 7.74577 18.1379 6.94419 18.1379 5.9554C18.1379 4.96662 18.9395 4.16504 19.9283 4.16504C20.9171 4.16504 21.7187 4.96662 21.7187 5.9554ZM19.9283 32.238C18.9395 32.238 18.1379 33.0395 18.1379 34.0283C18.1379 35.0171 18.9395 35.8187 19.9283 35.8187C20.9171 35.8187 21.7187 35.0171 21.7187 34.0283C21.7187 33.0395 20.9171 32.238 19.9283 32.238ZM34.0364 18.3447C33.0476 18.3447 32.246 19.1463 32.246 20.1351C32.246 21.1239 33.0476 21.9255 34.0364 21.9255C35.0252 21.9255 35.8267 21.1239 35.8267 20.1351C35.8267 19.1463 35.0252 18.3447 34.0364 18.3447ZM5.96346 18.3447C4.97468 18.3447 4.1731 19.1463 4.1731 20.1351C4.1731 21.1239 4.97468 21.9255 5.96346 21.9255C6.95224 21.9255 7.75382 21.1239 7.75382 20.1351C7.75382 19.1463 6.95224 18.3447 5.96346 18.3447Z" fill="white"/>
</svg>
