<svg width="40" height="40" viewBox="0 0 40 40" fill="none" xmlns="http://www.w3.org/2000/svg">
<path opacity="0.48" d="M14.4147 36.5232L14.1958 36.8839C14.1958 36.8839 4.45874 37.3851 4.45874 30.9414C4.45874 24.3546 12.987 21.4697 15.6277 20.56C16.2045 20.3613 17.233 20.0717 18.4881 19.6716C18.6755 20.069 18.8579 20.4685 19.0362 20.8698C15.7569 22.0439 8.7545 24.9728 8.7545 30.9414C8.7545 34.514 11.7474 35.9512 14.4147 36.5232ZM24.2514 36.0136L25.6029 29.8916C25.9483 28.1637 26.7975 26.5767 28.0435 25.3306L30.5785 22.7956C29.4958 22.6972 28.379 23.0621 27.5501 23.8909L23.1749 28.2661C21.9289 29.5121 21.0797 31.0991 20.7344 32.827L19.9235 36.8839C19.9235 36.8839 24.1615 36.0345 24.2514 36.0136Z" fill="white"/>
<path d="M36.7925 20.0142C35.8053 19.027 34.4928 18.4834 33.0968 18.4834C31.7008 18.4834 30.3883 19.027 29.4011 20.0142L22.1621 27.2532C20.7114 28.704 19.7321 30.5342 19.3299 32.546L18.519 36.6029C18.4252 37.0724 18.5721 37.5576 18.9107 37.8961C19.1819 38.1673 19.5472 38.3155 19.9232 38.3155C20.0166 38.3155 20.1105 38.3064 20.2039 38.2877L24.2608 37.4768C26.2726 37.0747 28.1028 36.0954 29.5536 34.6446L36.7925 27.4056C37.7797 26.4185 38.3234 25.106 38.3234 23.7099C38.3234 22.3139 37.7797 21.0014 36.7925 20.0142ZM34.7674 25.3805L27.5284 32.6195C26.4789 33.6691 25.1549 34.3776 23.6995 34.6685L21.7483 35.0584L22.1383 33.1072C22.4292 31.6518 23.1376 30.3278 24.1872 29.2783L31.4262 22.0392C31.8724 21.593 32.4658 21.3472 33.0968 21.3472C33.7279 21.3472 34.3213 21.593 34.7675 22.0393C35.2137 22.4855 35.4595 23.0789 35.4595 23.7099C35.4595 24.341 35.2138 24.9343 34.7674 25.3805Z" fill="white"/>
<path d="M17.1208 21.5835C16.7029 21.7149 16.2791 21.8501 16.0316 21.9353C13.5236 22.7989 5.89114 25.427 5.89114 30.9412C5.89114 32.0073 6.23588 32.8539 6.94511 33.5293C8.80825 35.3039 12.7603 35.5201 14.1246 35.4535C14.9152 35.4142 15.5859 36.0231 15.6254 36.8121C15.6649 37.6011 15.0589 38.2731 14.2699 38.3137C14.2281 38.3159 14.0284 38.3251 13.71 38.3251C12.1241 38.3251 7.59355 38.0952 4.97672 35.6095C3.68327 34.3809 3.0273 32.8102 3.0273 30.9412C3.0273 29.1343 3.56792 27.4329 4.63399 25.8845C5.48527 24.6482 6.68199 23.5015 8.19124 22.4761C10.787 20.7124 13.7621 19.6879 15.1618 19.206C15.4459 19.1081 15.8239 18.9893 16.2617 18.8516C18.2171 18.2366 21.4898 17.2074 24.297 15.6443C27.3812 13.9269 28.945 12.1031 28.945 10.2234C28.945 8.07825 27.9286 6.72343 27.0759 5.96466C26.0915 5.0884 24.7454 4.52229 23.6469 4.52229C22.8561 4.52229 22.215 3.88122 22.215 3.09037C22.215 2.29952 22.8561 1.65845 23.6469 1.65845C25.4616 1.65845 27.4552 2.46841 28.9798 3.82516C30.8041 5.44867 31.8089 7.72091 31.8089 10.2233C31.8089 16.9644 21.5161 20.2012 17.1208 21.5835Z" fill="white"/>
<path d="M9.54218 10.5363C6.52663 10.5363 4.68368 9.25586 3.66866 8.18163C2.3964 6.83505 1.66663 4.97936 1.66663 3.09037C1.66663 2.29952 2.3077 1.65845 3.09855 1.65845C3.88939 1.65845 4.53047 2.29952 4.53047 3.09037C4.53047 5.29724 6.09877 7.67251 9.54218 7.67251C12.0162 7.67251 13.5781 6.44421 15.3866 5.02196C15.9471 4.58114 16.5267 4.12536 17.1485 3.69707C17.7999 3.24859 18.6914 3.41284 19.1401 4.06414C19.5886 4.71545 19.4243 5.60704 18.773 6.05559C18.2256 6.43254 17.7065 6.84078 17.1568 7.27308C15.2119 8.80265 13.0074 10.5363 9.54218 10.5363Z" fill="white"/>
</svg>
