<svg width="40" height="40" viewBox="0 0 40 40" fill="none" xmlns="http://www.w3.org/2000/svg">
<path opacity="0.48" d="M28.6234 31.9435C27.3771 30.6972 26.5277 29.1098 26.1822 27.3814L25.11 21.54C24.975 21.5063 20.6445 20.6362 20.6445 20.6362L21.4556 24.6942C21.8011 26.4225 22.6505 28.01 23.8968 29.2563L30.4216 35.781L31.4412 34.7614L28.6234 31.9435Z" fill="#1C252E"/>
<path d="M14.3425 4.52303H10.0141C9.42282 2.85599 7.83083 1.65845 5.96362 1.65845C3.59433 1.65845 1.66675 3.58603 1.66675 5.95532C1.66675 7.82253 2.86429 9.41452 4.53133 10.0058V14.2626C4.53133 15.0537 5.17257 15.6949 5.96362 15.6949C6.75468 15.6949 7.39591 15.0537 7.39591 14.2626V10.0058C8.61465 9.57358 9.58188 8.60642 10.0141 7.38761H14.3425C15.1336 7.38761 15.7748 6.74638 15.7748 5.95532C15.7748 5.16427 15.1336 4.52303 14.3425 4.52303ZM5.96362 7.38761C5.17386 7.38761 4.53133 6.74509 4.53133 5.95532C4.53133 5.16556 5.17386 4.52303 5.96362 4.52303C6.75339 4.52303 7.39591 5.16556 7.39591 5.95532C7.39591 6.74509 6.75339 7.38761 5.96362 7.38761ZM25.586 7.38761H29.986C30.4183 8.60635 31.3854 9.57358 32.6042 10.0058V14.2626C32.6042 15.0537 33.2455 15.6949 34.0365 15.6949C34.8276 15.6949 35.4688 15.0537 35.4688 14.2626V10.0058C37.1359 9.41459 38.3334 7.82253 38.3334 5.95532C38.3334 3.58603 36.4058 1.65845 34.0365 1.65845C32.1693 1.65845 30.5773 2.85599 29.986 4.52303H25.586C24.795 4.52303 24.1537 5.16427 24.1537 5.95532C24.1537 6.74638 24.795 7.38761 25.586 7.38761ZM34.0365 4.52303C34.8263 4.52303 35.4688 5.16556 35.4688 5.95532C35.4688 6.74509 34.8263 7.38761 34.0365 7.38761C33.2468 7.38761 32.6042 6.74509 32.6042 5.95532C32.6042 5.16556 33.2468 4.52303 34.0365 4.52303ZM14.3425 32.5959H10.0141C9.58188 31.3772 8.61472 30.41 7.39591 29.9777V25.6493C7.39591 24.8583 6.75468 24.217 5.96362 24.217C5.17257 24.217 4.53133 24.8583 4.53133 25.6493V29.9777C2.86429 30.569 1.66675 32.161 1.66675 34.0282C1.66675 36.3975 3.59433 38.3251 5.96362 38.3251C7.83083 38.3251 9.42282 37.1276 10.0141 35.4605H14.3425C15.1336 35.4605 15.7748 34.8193 15.7748 34.0282C15.7748 33.2372 15.1336 32.5959 14.3425 32.5959ZM5.96362 35.4605C5.17386 35.4605 4.53133 34.818 4.53133 34.0282C4.53133 33.2385 5.17386 32.5959 5.96362 32.5959C6.75339 32.5959 7.39591 33.2385 7.39591 34.0282C7.39591 34.818 6.75339 35.4605 5.96362 35.4605Z" fill="#1C252E"/>
<path d="M30.2776 22.8759C28.8265 21.4247 26.9957 20.4452 24.9834 20.0429L20.9254 19.2318C20.456 19.1378 19.9706 19.2849 19.6319 19.6235C19.2933 19.9622 19.1464 20.4475 19.2402 20.9171L20.0513 24.9751C20.4536 26.9874 21.4332 28.8181 22.8842 30.2693L29.409 36.7939C30.3964 37.7813 31.7092 38.3252 33.1056 38.3252C34.5021 38.3252 35.8149 37.7813 36.8023 36.7939C37.7897 35.8065 38.3335 34.4937 38.3335 33.0973C38.3335 31.7009 37.7897 30.3881 36.8023 29.4006L30.2776 22.8759ZM34.7767 34.7684C34.3304 35.2147 33.7369 35.4606 33.1056 35.4606C32.4744 35.4606 31.8809 35.2147 31.4346 34.7684L24.9098 28.2437C23.8601 27.1938 23.1514 25.8695 22.8604 24.4137L22.4703 22.462L24.422 22.8521C25.8779 23.143 27.2022 23.8517 28.252 24.9015L34.7768 31.4263C35.2231 31.8726 35.4689 32.4661 35.4689 33.0973C35.4689 33.7285 35.2231 34.3221 34.7767 34.7684Z" fill="#1C252E"/>
<path d="M21.7189 5.9554C21.7189 6.94419 20.9173 7.74577 19.9285 7.74577C18.9398 7.74577 18.1382 6.94419 18.1382 5.9554C18.1382 4.96662 18.9398 4.16504 19.9285 4.16504C20.9173 4.16504 21.7189 4.96662 21.7189 5.9554ZM19.9285 32.238C18.9398 32.238 18.1382 33.0395 18.1382 34.0283C18.1382 35.0171 18.9398 35.8187 19.9285 35.8187C20.9173 35.8187 21.7189 35.0171 21.7189 34.0283C21.7189 33.0395 20.9173 32.238 19.9285 32.238ZM34.0366 18.3447C33.0478 18.3447 32.2463 19.1463 32.2463 20.1351C32.2463 21.1239 33.0478 21.9255 34.0366 21.9255C35.0254 21.9255 35.827 21.1239 35.827 20.1351C35.827 19.1463 35.0254 18.3447 34.0366 18.3447ZM5.9637 18.3447C4.97492 18.3447 4.17334 19.1463 4.17334 20.1351C4.17334 21.1239 4.97492 21.9255 5.9637 21.9255C6.95249 21.9255 7.75407 21.1239 7.75407 20.1351C7.75407 19.1463 6.95249 18.3447 5.9637 18.3447Z" fill="#1C252E"/>
</svg>
