<svg width="40" height="40" viewBox="0 0 40 40" fill="none" xmlns="http://www.w3.org/2000/svg">
<path opacity="0.48" d="M7.53914 22.8335V11.0828C7.53914 7.12928 10.7363 3.92432 14.6803 3.92432H10.3321C6.37691 3.92432 3.17065 7.13057 3.17065 11.0858V22.8306C3.17065 26.7857 6.37691 29.992 10.3321 29.992H14.6803C10.7363 29.992 7.53914 26.7871 7.53914 22.8335Z" fill="#1C252E"/>
<path d="M26.8751 37.1534H13.1251C11.2267 37.083 11.2282 34.3586 13.1251 34.2888H26.8751C28.7734 34.3592 28.772 37.0836 26.8751 37.1534ZM29.7397 31.4242H10.259C5.52126 31.4242 1.66675 27.5698 1.66675 22.832V11.0857C1.66675 6.3471 5.5219 2.49194 10.2605 2.49194H29.7397C34.4783 2.49194 38.3334 6.3471 38.3334 11.0857V22.8305C38.3334 27.5691 34.4783 31.4242 29.7397 31.4242ZM10.2605 5.35653C7.10144 5.35653 4.53133 7.92663 4.53133 11.0857V22.832C4.53133 25.9902 7.10079 28.5597 10.259 28.5597H29.7397C32.8987 28.5597 35.4688 25.9895 35.4688 22.8305V11.0857C35.4688 7.92663 32.8987 5.35653 29.7397 5.35653H10.2605Z" fill="#1C252E"/>
<path d="M18.4255 24.1914C18.2945 24.1914 18.1613 24.1733 18.0291 24.1353C17.2689 23.9167 16.8297 23.1233 17.0483 22.363L20.3426 10.9047C20.5612 10.1445 21.3548 9.70571 22.1149 9.92392C22.8751 10.1426 23.3142 10.936 23.0956 11.6962L19.8014 23.1546C19.6208 23.7825 19.0478 24.1914 18.4255 24.1914ZM27.0186 22.7588C26.6482 22.7588 26.2781 22.616 25.9978 22.3311C25.4429 21.7673 25.4501 20.8605 26.0139 20.3056L28.8182 17.5459C29.0967 17.245 29.0968 16.8498 28.8159 16.5488L26.0071 13.7467C25.447 13.188 25.446 12.2811 26.0047 11.7212C26.5634 11.1611 27.4703 11.1601 28.0303 11.7187L30.8388 14.5206C32.2292 15.8506 32.2292 18.2467 30.8384 19.5768C30.8363 19.579 30.834 19.5812 30.8318 19.5834L28.0233 22.3474C27.7443 22.6218 27.3814 22.7588 27.0186 22.7588ZM13.1253 22.7588C12.7625 22.7588 12.3997 22.6218 12.1206 22.3473L9.31213 19.5833C9.30991 19.5811 9.30769 19.5789 9.30554 19.5767C7.91472 18.2463 7.91479 15.8505 9.30554 14.5203L12.1137 11.7187C12.6737 11.1601 13.5806 11.1612 14.1392 11.7212C14.6979 12.2811 14.6969 13.188 14.1369 13.7467L11.3284 16.5486C11.0474 16.8493 11.0468 17.2444 11.3257 17.5459L14.1299 20.3056C14.6938 20.8605 14.701 21.7673 14.1461 22.3311C13.8658 22.616 13.4956 22.7588 13.1253 22.7588Z" fill="#1C252E"/>
</svg>
